solid domain
 facet normal -1 0 0
  outer loop
   vertex -8 -8 -2
   vertex -8 -8 2
   vertex -8 8 -2
  endloop
 endfacet
 facet normal -1 0 0
  outer loop
   vertex -8 8 2
   vertex -8 8 -2
   vertex -8 -8 2
  endloop
 endfacet
 facet normal 1 0 0
  outer loop
   vertex 16 -8 -2
   vertex 16 8 -2
   vertex 16 -8 2
  endloop
 endfacet
 facet normal 1 -0 0
  outer loop
   vertex 16 8 2
   vertex 16 -8 2
   vertex 16 8 -2
  endloop
 endfacet
 facet normal 0 -1 0
  outer loop
   vertex -8 -8 -2
   vertex 16 -8 -2
   vertex -8 -8 2
  endloop
 endfacet
 facet normal 0 -1 0
  outer loop
   vertex 16 -8 2
   vertex -8 -8 2
   vertex 16 -8 -2
  endloop
 endfacet
 facet normal 0 1 0
  outer loop
   vertex -8 8 -2
   vertex -8 8 2
   vertex 16 8 -2
  endloop
 endfacet
 facet normal 0 1 -0
  outer loop
   vertex 16 8 2
   vertex 16 8 -2
   vertex -8 8 2
  endloop
 endfacet
 facet normal 0 0 -1
  outer loop
   vertex -8 -8 -2
   vertex -8 8 -2
   vertex 16 -8 -2
  endloop
 endfacet
 facet normal 0 0 -1
  outer loop
   vertex 16 8 -2
   vertex 16 -8 -2
   vertex -8 8 -2
  endloop
 endfacet
 facet normal 0 0 1
  outer loop
   vertex -8 -8 2
   vertex 16 -8 2
   vertex -8 8 2
  endloop
 endfacet
 facet normal -0 0 1
  outer loop
   vertex 16 8 2
   vertex -8 8 2
   vertex 16 -8 2
  endloop
 endfacet
endsolid
