solid Outlet
 facet normal 1 0 0
  outer loop
   vertex 12 8.8817842e-16 0
   vertex 12 8.8817842e-16 0.180000007
   vertex 12 -6 0
  endloop
 endfacet
 facet normal 1 -0 0
  outer loop
   vertex 12 8.8817842e-16 0.180000007
   vertex 12 -6 0.180000007
   vertex 12 -6 0
  endloop
 endfacet
 facet normal -1 0 0
  outer loop
   vertex 12 8.8817842e-16 0
   vertex 12 8.8817842e-16 0.180000007
   vertex 12 6 0
  endloop
 endfacet
 facet normal -1 -0 -0
  outer loop
   vertex 12 8.8817842e-16 0.180000007
   vertex 12 6 0.180000007
   vertex 12 6 0
  endloop
 endfacet
endsolid
solid Inlet
 facet normal -1 0 0
  outer loop
   vertex -6 -6 0
   vertex -6 -6 0.180000007
   vertex -6 -4.4408921e-16 0
  endloop
 endfacet
 facet normal -1 -0 -0
  outer loop
   vertex -6 -6 0.180000007
   vertex -6 -4.4408921e-16 0.180000007
   vertex -6 -4.4408921e-16 0
  endloop
 endfacet
 facet normal 1 0 0
  outer loop
   vertex -6 6 0
   vertex -6 6 0.180000007
   vertex -6 -4.4408921e-16 0
  endloop
 endfacet
 facet normal 1 -0 0
  outer loop
   vertex -6 6 0.180000007
   vertex -6 -4.4408921e-16 0.180000007
   vertex -6 -4.4408921e-16 0
  endloop
 endfacet
endsolid
solid Bottom
 facet normal 0 -1 -0
  outer loop
   vertex 3 -6 0
   vertex 3 -6 0.180000007
   vertex -6 -6 0
  endloop
 endfacet
 facet normal 0 -1 0
  outer loop
   vertex 3 -6 0.180000007
   vertex -6 -6 0.180000007
   vertex -6 -6 0
  endloop
 endfacet
 facet normal 0 1 0
  outer loop
   vertex 3 -6 0
   vertex 3 -6 0.180000007
   vertex 12 -6 0
  endloop
 endfacet
 facet normal 0 1 0
  outer loop
   vertex 3 -6 0.180000007
   vertex 12 -6 0.180000007
   vertex 12 -6 0
  endloop
 endfacet
endsolid
solid Top
 facet normal 0 1 0
  outer loop
   vertex -6 6 0
   vertex -6 6 0.180000007
   vertex 3 6 0
  endloop
 endfacet
 facet normal 0 1 0
  outer loop
   vertex -6 6 0.180000007
   vertex 3 6 0.180000007
   vertex 3 6 0
  endloop
 endfacet
 facet normal 0 -1 -0
  outer loop
   vertex 12 6 0
   vertex 12 6 0.180000007
   vertex 3 6 0
  endloop
 endfacet
 facet normal 0 -1 0
  outer loop
   vertex 12 6 0.180000007
   vertex 3 6 0.180000007
   vertex 3 6 0
  endloop
 endfacet
endsolid
