solid VR1
 facet normal -1 0 0
  outer loop
   vertex -7 -7 -2
   vertex -7 -7 2
   vertex -7 7 -2
  endloop
 endfacet
 facet normal -1 0 0
  outer loop
   vertex -7 7 2
   vertex -7 7 -2
   vertex -7 -7 2
  endloop
 endfacet
 facet normal 1 0 0
  outer loop
   vertex 14 -7 -2
   vertex 14 7 -2
   vertex 14 -7 2
  endloop
 endfacet
 facet normal 1 -0 0
  outer loop
   vertex 14 7 2
   vertex 14 -7 2
   vertex 14 7 -2
  endloop
 endfacet
 facet normal 0 -1 0
  outer loop
   vertex -7 -7 -2
   vertex 14 -7 -2
   vertex -7 -7 2
  endloop
 endfacet
 facet normal 0 -1 0
  outer loop
   vertex 14 -7 2
   vertex -7 -7 2
   vertex 14 -7 -2
  endloop
 endfacet
 facet normal 0 1 0
  outer loop
   vertex -7 7 -2
   vertex -7 7 2
   vertex 14 7 -2
  endloop
 endfacet
 facet normal 0 1 -0
  outer loop
   vertex 14 7 2
   vertex 14 7 -2
   vertex -7 7 2
  endloop
 endfacet
 facet normal 0 0 -1
  outer loop
   vertex -7 -7 -2
   vertex -7 7 -2
   vertex 14 -7 -2
  endloop
 endfacet
 facet normal 0 0 -1
  outer loop
   vertex 14 7 -2
   vertex 14 -7 -2
   vertex -7 7 -2
  endloop
 endfacet
 facet normal 0 0 1
  outer loop
   vertex -7 -7 2
   vertex 14 -7 2
   vertex -7 7 2
  endloop
 endfacet
 facet normal -0 0 1
  outer loop
   vertex 14 7 2
   vertex -7 7 2
   vertex 14 -7 2
  endloop
 endfacet
endsolid
