solid VR3
 facet normal -1 0 0
  outer loop
   vertex -4 -4 -2
   vertex -4 -4 2
   vertex -4 4 -2
  endloop
 endfacet
 facet normal -1 0 0
  outer loop
   vertex -4 4 2
   vertex -4 4 -2
   vertex -4 -4 2
  endloop
 endfacet
 facet normal 1 0 0
  outer loop
   vertex 10 -4 -2
   vertex 10 4 -2
   vertex 10 -4 2
  endloop
 endfacet
 facet normal 1 -0 0
  outer loop
   vertex 10 4 2
   vertex 10 -4 2
   vertex 10 4 -2
  endloop
 endfacet
 facet normal 0 -1 0
  outer loop
   vertex -4 -4 -2
   vertex 10 -4 -2
   vertex -4 -4 2
  endloop
 endfacet
 facet normal 0 -1 0
  outer loop
   vertex 10 -4 2
   vertex -4 -4 2
   vertex 10 -4 -2
  endloop
 endfacet
 facet normal 0 1 0
  outer loop
   vertex -4 4 -2
   vertex -4 4 2
   vertex 10 4 -2
  endloop
 endfacet
 facet normal 0 1 -0
  outer loop
   vertex 10 4 2
   vertex 10 4 -2
   vertex -4 4 2
  endloop
 endfacet
 facet normal 0 0 -1
  outer loop
   vertex -4 -4 -2
   vertex -4 4 -2
   vertex 10 -4 -2
  endloop
 endfacet
 facet normal 0 0 -1
  outer loop
   vertex 10 4 -2
   vertex 10 -4 -2
   vertex -4 4 -2
  endloop
 endfacet
 facet normal 0 0 1
  outer loop
   vertex -4 -4 2
   vertex 10 -4 2
   vertex -4 4 2
  endloop
 endfacet
 facet normal -0 0 1
  outer loop
   vertex 10 4 2
   vertex -4 4 2
   vertex 10 -4 2
  endloop
 endfacet
endsolid
