solid VR4
 facet normal -1 0 0
  outer loop
   vertex -3 -3 -2
   vertex -3 -3 2
   vertex -3 3 -2
  endloop
 endfacet
 facet normal -1 0 0
  outer loop
   vertex -3 3 2
   vertex -3 3 -2
   vertex -3 -3 2
  endloop
 endfacet
 facet normal 1 0 0
  outer loop
   vertex 8 -3 -2
   vertex 8 3 -2
   vertex 8 -3 2
  endloop
 endfacet
 facet normal 1 -0 0
  outer loop
   vertex 8 3 2
   vertex 8 -3 2
   vertex 8 3 -2
  endloop
 endfacet
 facet normal 0 -1 0
  outer loop
   vertex -3 -3 -2
   vertex 8 -3 -2
   vertex -3 -3 2
  endloop
 endfacet
 facet normal 0 -1 0
  outer loop
   vertex 8 -3 2
   vertex -3 -3 2
   vertex 8 -3 -2
  endloop
 endfacet
 facet normal 0 1 0
  outer loop
   vertex -3 3 -2
   vertex -3 3 2
   vertex 8 3 -2
  endloop
 endfacet
 facet normal 0 1 -0
  outer loop
   vertex 8 3 2
   vertex 8 3 -2
   vertex -3 3 2
  endloop
 endfacet
 facet normal 0 0 -1
  outer loop
   vertex -3 -3 -2
   vertex -3 3 -2
   vertex 8 -3 -2
  endloop
 endfacet
 facet normal 0 0 -1
  outer loop
   vertex 8 3 -2
   vertex 8 -3 -2
   vertex -3 3 -2
  endloop
 endfacet
 facet normal 0 0 1
  outer loop
   vertex -3 -3 2
   vertex 8 -3 2
   vertex -3 3 2
  endloop
 endfacet
 facet normal -0 0 1
  outer loop
   vertex 8 3 2
   vertex -3 3 2
   vertex 8 -3 2
  endloop
 endfacet
endsolid
