v 0.0005423876573 0.6000000238 -0.004722107202
v 0.0004353494442 0.6000000238 -0.004282250069
l 1 2
v 0.0006675016484 0.6000000238 -0.005174528342
v 0.0005423876573 0.6000000238 -0.004722107202
l 3 4
v 0.0004353494442 0.6000000238 -0.004282250069
v 0.0003453023965 0.6000000238 -0.003853350645
l 5 6
v 0.0008119193953 0.6000000238 -0.005641541909
v 0.0006675016484 0.6000000238 -0.005174528342
l 7 8
v 0.0009772132616 0.6000000238 -0.006125746761
v 0.0008119193953 0.6000000238 -0.005641541909
l 9 10
v 0.0003453023965 0.6000000238 -0.003853350645
v 0.0002691492264 0.6000000238 -0.003427079879
l 11 12
v 0.001165079186 0.6000000238 -0.006629616488
v 0.0009772132616 0.6000000238 -0.006125746761
l 13 14
v 0.0002691492264 0.6000000238 -0.003427079879
v 0.0002026822185 0.6000000238 -0.002983581973
l 15 16
v 0.001354631735 0.6000000238 -0.007101215422
v 0.001165079186 0.6000000238 -0.006629616488
l 17 18
v 0.0002026822185 0.6000000238 -0.002983581973
v 0.0001454967423 0.6000000238 -0.002518262481
l 19 20
v 0.0001454967423 0.6000000238 -0.002518262481
v 9.753450286e-05 0.6000000238 -0.002027546056
l 21 22
v 0.001565384911 0.6000000238 -0.00759294536
v 0.001354631735 0.6000000238 -0.007101215422
l 23 24
v 0.002697692486 0.6000000238 -0.009891561233
v 0.002372783609 0.6000000238 -0.00927558355
l 25 26
v 0.001799894497 0.6000000238 -0.008109270595
v 0.001565384911 0.6000000238 -0.00759294536
l 27 28
v 0.003037199145 0.6000000238 -0.01050566044
v 0.002697692486 0.6000000238 -0.009891561233
l 29 30
v 9.753450286e-05 0.6000000238 -0.002027546056
v 5.870025052e-05 0.6000000238 -0.001506474102
l 31 32
v 0.003391537583 0.6000000238 -0.01111805905
v 0.003037199145 0.6000000238 -0.01050566044
l 33 34
v 0.002062256215 0.6000000238 -0.008657549508
v 0.001799894497 0.6000000238 -0.008109270595
l 35 36
v 0.003760959487 0.6000000238 -0.01172893774
v 0.003391537583 0.6000000238 -0.01111805905
l 37 38
v 0.002372783609 0.6000000238 -0.00927558355
v 0.002062256215 0.6000000238 -0.008657549508
l 39 40
v 0.0007969387225 0.6000000238 0.002657190897
v 0.0008888893062 0.6000000238 0.002791695762
l 41 42
v 0.00414573634 0.6000000238 -0.01233847812
v 0.003760959487 0.6000000238 -0.01172893774
l 43 44
v 0.0008888893062 0.6000000238 0.002791695762
v 0.0009830622002 0.6000000238 0.002909605158
l 45 46
v 0.0009830622002 0.6000000238 0.002909605158
v 0.001097824308 0.6000000238 0.003031705506
l 47 48
v 0.000603149063 0.6000000238 0.002309014555
v 0.0006919899606 0.6000000238 0.002481377218
l 49 50
v 0.004546160344 0.6000000238 -0.01294686273
v 0.00414573634 0.6000000238 -0.01233847812
l 51 52
v 0.0006919899606 0.6000000238 0.002481377218
v 0.0007969387225 0.6000000238 0.002657190897
l 53 54
v 0.004962589592 0.6000000238 -0.01355434768
v 0.004546160344 0.6000000238 -0.01294686273
l 55 56
v 0.0005216335994 0.6000000238 0.002125023864
v 0.000603149063 0.6000000238 0.002309014555
l 57 58
v 0.005397758912 0.6000000238 -0.01416441612
v 0.004962589592 0.6000000238 -0.01355434768
l 59 60
v 0.001638641814 0.6000000238 0.003480721964
v 0.001834571362 0.6000000238 0.003614248009
l 61 62
v 0.001097824308 0.6000000238 0.003031705506
v 0.001246589003 0.6000000238 0.003169836476
l 63 64
v 5.870025052e-05 0.6000000238 -0.001506474102
v 2.884242895e-05 0.6000000238 -0.0009478979628
l 65 66
v 0.001437713276 0.6000000238 0.00332863396
v 0.001638641814 0.6000000238 0.003480721964
l 67 68
v 0.0004177659575 0.6000000238 0.001857079915
v 0.0005216335994 0.6000000238 0.002125023864
l 69 70
v 0.005853902083 0.6000000238 -0.01477951184
v 0.005397758912 0.6000000238 -0.01416441612
l 71 72
v 0.001246589003 0.6000000238 0.003169836476
v 0.001437713276 0.6000000238 0.00332863396
l 73 74
v 0.0002027197625 0.6000000238 0.001123687485
v 0.0002630004892 0.6000000238 0.001371767721
l 75 76
v 0.006332010496 0.6000000238 -0.01540037245
v 0.005853902083 0.6000000238 -0.01477951184
l 77 78
v 0.001834571362 0.6000000238 0.003614248009
v 0.002047128743 0.6000000238 0.003744100919
l 79 80
v 0.0002630004892 0.6000000238 0.001371767721
v 0.0003328776802 0.6000000238 0.001609786763
l 81 82
v 0.006833204068 0.6000000238 -0.01602784917
v 0.006332010496 0.6000000238 -0.01540037245
l 83 84
v 0.002279329579 0.6000000238 0.003873495385
v 0.002615628298 0.6000000238 0.004046320915
l 85 86
v 0.0003328776802 0.6000000238 0.001609786763
v 0.0004177659575 0.6000000238 0.001857079915
l 87 88
v 0.007358780131 0.6000000238 -0.01666293852
v 0.006833204068 0.6000000238 -0.01602784917
l 89 90
v 0.002615628298 0.6000000238 0.004046320915
v 0.002957944293 0.6000000238 0.004207406659
l 91 92
v 0.0001457289763 0.6000000238 0.0008426792338
v 0.0002027197625 0.6000000238 0.001123687485
l 93 94
v 0.007910262793 0.6000000238 -0.01730680652
v 0.007358780131 0.6000000238 -0.01666293852
l 95 96
v 0.004413406365 0.6000000238 0.004758206662
v 0.004878581502 0.6000000238 0.004901786335
l 97 98
v 0.002047128743 0.6000000238 0.003744100919
v 0.002279329579 0.6000000238 0.003873495385
l 99 100
v 0.008489466272 0.6000000238 -0.01796086878
v 0.007910262793 0.6000000238 -0.01730680652
l 101 102
v 0.003989921883 0.6000000238 0.004615936894
v 0.004413406365 0.6000000238 0.004758206662
l 103 104
v 0.002957944293 0.6000000238 0.004207406659
v 0.003311660374 0.6000000238 0.004359350074
l 105 106
v 0.009098570794 0.6000000238 -0.01862682588
v 0.008489466272 0.6000000238 -0.01796086878
l 107 108
v 0.004878581502 0.6000000238 0.004901786335
v 0.00537007628 0.6000000238 0.005040105432
l 109 110
v 7.876277959e-05 0.6000000238 0.0004591356847
v 0.0001457289763 0.6000000238 0.0008426792338
l 111 112
v 0.009738425724 0.6000000238 -0.01930487715
v 0.009098570794 0.6000000238 -0.01862682588
l 113 114
v 0.00537007628 0.6000000238 0.005040105432
v 0.005877247546 0.6000000238 0.005169434939
l 115 116
v 0.003311660374 0.6000000238 0.004359350074
v 0.003676338121 0.6000000238 0.004502319731
l 117 118
v 0.01039841678 0.6000000238 -0.01998364553
v 0.009738425724 0.6000000238 -0.01930487715
l 119 120
v 0.003676338121 0.6000000238 0.004502319731
v 0.003989921883 0.6000000238 0.004615936894
l 121 122
v 0.01107766014 0.6000000238 -0.02066218294
v 0.01039841678 0.6000000238 -0.01998364553
l 123 124
v 0.005877247546 0.6000000238 0.005169434939
v 0.006401435472 0.6000000238 0.005289841443
l 125 126
v 0.01177682448 0.6000000238 -0.02134086378
v 0.01107766014 0.6000000238 -0.02066218294
l 127 128
v 0.01547807828 0.6000000238 -0.02464974858
v 0.0146701606 0.6000000238 -0.0239638444
l 129 130
v 0.006401435472 0.6000000238 0.005289841443
v 0.00694397511 0.6000000238 0.005401334725
l 131 132
v 0.01249665208 0.6000000238 -0.02202008665
v 0.01177682448 0.6000000238 -0.02134086378
l 133 134
v 0.0163086839 0.6000000238 -0.02533647045
v 0.01547807828 0.6000000238 -0.02464974858
l 135 136
v 0.00694397511 0.6000000238 0.005401334725
v 0.007506470196 0.6000000238 0.005503925029
l 137 138
v 0.01323732641 0.6000000238 -0.02269972302
v 0.01249665208 0.6000000238 -0.02202008665
l 139 140
v 0.01716068015 0.6000000238 -0.02602272481
v 0.0163086839 0.6000000238 -0.02533647045
l 141 142
v 0.007506470196 0.6000000238 0.005503925029
v 0.008090794086 0.6000000238 0.005597589072
l 143 144
v 0.01388658211 0.6000000238 -0.02328044921
v 0.01323732641 0.6000000238 -0.02269972302
l 145 146
v 0.01803484373 0.6000000238 -0.02670886181
v 0.01716068015 0.6000000238 -0.02602272481
l 147 148
v 0.008090794086 0.6000000238 0.005597589072
v 0.008698485792 0.6000000238 0.005682213232
l 149 150
v 0.0146701606 0.6000000238 -0.0239638444
v 0.01388658211 0.6000000238 -0.02328044921
l 151 152
v 0.008698485792 0.6000000238 0.005682213232
v 0.0093326848 0.6000000238 0.005757887382
l 153 154
v 0.01893205009 0.6000000238 -0.02739525959
v 0.01803484373 0.6000000238 -0.02670886181
l 155 156
v 0.0093326848 0.6000000238 0.005757887382
v 0.009955799207 0.6000000238 0.005820893683
l 157 158
v 7.699129128e-06 0.6000000238 -0.0003407362965
v 4.752502558e-11 0.6000000238 -2.51561838e-09
l 159 160
v 0.01985325292 0.6000000238 -0.02808233723
v 0.01893205009 0.6000000238 -0.02739525959
l 161 162
v 0.01305910293 0.6000000238 0.006006615236
v 0.01399981603 0.6000000238 0.00603134837
l 163 164
v 0.009955799207 0.6000000238 0.005820893683
v 0.01065573841 0.6000000238 0.005879724398
l 165 166
v 2.884242895e-05 0.6000000238 -0.0009478979628
v 7.699129128e-06 0.6000000238 -0.0003407362965
l 167 168
v 0.01219263487 0.6000000238 0.005972194951
v 0.01305910293 0.6000000238 0.006006615236
l 169 170
v 0.01065573841 0.6000000238 0.005879724398
v 0.01139722206 0.6000000238 0.005929989275
l 171 172
v 0.02079952881 0.6000000238 -0.02877056412
v 0.01985325292 0.6000000238 -0.02808233723
l 173 174
v 0.01139722206 0.6000000238 0.005929989275
v 0.01219263487 0.6000000238 0.005972194951
l 175 176
v 0.02177207172 0.6000000238 -0.02946046926
v 0.02079952881 0.6000000238 -0.02877056412
l 177 178
v 0.01399981603 0.6000000238 0.00603134837
v 0.01496014278 0.6000000238 0.006043605041
l 179 180
v 0.02277220599 0.6000000238 -0.03015263192
v 0.02177207172 0.6000000238 -0.02946046926
l 181 182
v 0.01496014278 0.6000000238 0.006043605041
v 0.01594238169 0.6000000238 0.006043194328
l 183 184
v 0.02379771695 0.6000000238 -0.03084523045
v 0.02277220599 0.6000000238 -0.03015263192
l 185 186
v 0.01594238169 0.6000000238 0.006043194328
v 0.01694880985 0.6000000238 0.006029871292
l 187 188
v 0.02484434843 0.6000000238 -0.03153526038
v 0.02379771695 0.6000000238 -0.03084523045
l 189 190
v 0.217616871 0.6000000238 -0.01904323511
v 0.2211475521 0.6000000238 -0.01905761845
l 191 192
v 0.01694880985 0.6000000238 0.006029871292
v 0.01798211783 0.6000000238 0.006003342103
l 193 194
v 0.02591281198 0.6000000238 -0.03222299367
v 0.02484434843 0.6000000238 -0.03153526038
l 195 196
v 0.222426489 0.6000000238 -0.056389153
v 0.2196462303 0.6000000238 -0.05690723285
l 197 198
v 0.2141155005 0.6000000238 -0.01901567914
v 0.217616871 0.6000000238 -0.01904323511
l 199 200
v 0.2106426358 0.6000000238 -0.01897512004
v 0.2141155005 0.6000000238 -0.01901567914
l 201 202
v 0.02318783291 0.6000000238 0.005698229652
v 0.02443614602 0.6000000238 0.005588296801
l 203 204
v 0.01798211783 0.6000000238 0.006003342103
v 0.0190455243 0.6000000238 0.005963246804
l 205 206
v 0.02700391971 0.6000000238 -0.03290870413
v 0.02591281198 0.6000000238 -0.03222299367
l 207 208
v 0.2169220001 0.6000000238 -0.05740076676
v 0.2142492086 0.6000000238 -0.05787090212
l 209 210
v 0.2142492086 0.6000000238 -0.05787090212
v 0.2116322815 0.6000000238 -0.05831702426
l 211 212
v 0.02443614602 0.6000000238 0.005588296801
v 0.02571558394 0.6000000238 0.005462852772
l 213 214
v 0.0190455243 0.6000000238 0.005963246804
v 0.02014293335 0.6000000238 0.00590914255
l 215 216
v 0.02811855264 0.6000000238 -0.03359269723
v 0.02700391971 0.6000000238 -0.03290870413
l 217 218
v 0.2211475521 0.6000000238 -0.01905761845
v 0.2246884853 0.6000000238 -0.01905851439
l 219 220
v 0.2116322815 0.6000000238 -0.05831702426
v 0.2090905011 0.6000000238 -0.0587361306
l 221 222
v 0.02571558394 0.6000000238 0.005462852772
v 0.02704295143 0.6000000238 0.005320074502
l 223 224
v 0.02014293335 0.6000000238 0.00590914255
v 0.0212791767 0.6000000238 0.005840461701
l 225 226
v 0.02925768495 0.6000000238 -0.03427531198
v 0.02811855264 0.6000000238 -0.03359269723
l 227 228
v 0.2246884853 0.6000000238 -0.01905851439
v 0.2282244861 0.6000000238 -0.0190458484
l 229 230
v 0.2196462303 0.6000000238 -0.05690723285
v 0.2169220001 0.6000000238 -0.05740076676
l 231 232
v 0.02704295143 0.6000000238 0.005320074502
v 0.02842574194 0.6000000238 0.005158807151
l 233 234
v 0.0212791767 0.6000000238 0.005840461701
v 0.02245861664 0.6000000238 0.005756391212
l 235 236
v 0.03042238764 0.6000000238 -0.03495691717
v 0.02925768495 0.6000000238 -0.03427531198
l 237 238
v 0.3295988739 0.6000000238 -0.01242163032
v 0.3330623507 0.6000000238 -0.01197839156
l 239 240
v 0.3261412084 0.6000000238 -0.01285053603
v 0.3295988739 0.6000000238 -0.01242163032
l 241 242
v 0.2282244861 0.6000000238 -0.0190458484
v 0.2317554653 0.6000000238 -0.01901964098
l 243 244
v 0.2252681255 0.6000000238 -0.05584517866
v 0.222426489 0.6000000238 -0.056389153
l 245 246
v 0.02245861664 0.6000000238 0.005756391212
v 0.02318783291 0.6000000238 0.005698229652
l 247 248
v 0.0316138342 0.6000000238 -0.03563791513
v 0.03042238764 0.6000000238 -0.03495691717
l 249 250
v 0.3315832615 0.6000000238 -0.02816480398
v 0.3280367255 0.6000000238 -0.02927468903
l 251 252
v 0.3226895034 0.6000000238 -0.01326515246
v 0.3261412084 0.6000000238 -0.01285053603
l 253 254
v 0.2281773984 0.6000000238 -0.05527373776
v 0.2252681255 0.6000000238 -0.05584517866
l 255 256
v 0.2071974725 0.6000000238 -0.01892165281
v 0.2106426358 0.6000000238 -0.01897512004
l 257 258
v 0.02842574194 0.6000000238 0.005158807151
v 0.02987418696 0.6000000238 0.004977495875
l 259 260
v 0.03283004835 0.6000000238 -0.03631694242
v 0.0316138342 0.6000000238 -0.03563791513
l 261 262
v 0.3280367255 0.6000000238 -0.02927468903
v 0.3244089186 0.6000000238 -0.03039639443
l 263 264
v 0.3192436993 0.6000000238 -0.01366550848
v 0.3226895034 0.6000000238 -0.01326515246
l 265 266
v 0.2352813631 0.6000000238 -0.01897991076
v 0.2388021797 0.6000000238 -0.01892667823
l 267 268
v 0.2317554653 0.6000000238 -0.01901964098
v 0.2352813631 0.6000000238 -0.01897991076
l 269 270
v 0.2090905011 0.6000000238 -0.0587361306
v 0.2066167146 0.6000000238 -0.0591298677
l 271 272
v 0.02987418696 0.6000000238 0.004977495875
v 0.03140229359 0.6000000238 0.004774009343
l 273 274
v 0.03406719491 0.6000000238 -0.03699173033
v 0.03283004835 0.6000000238 -0.03631694242
l 275 276
v 0.3244089186 0.6000000238 -0.03039639443
v 0.3206923604 0.6000000238 -0.03153198212
l 277 278
v 0.3158037961 0.6000000238 -0.01405163296
v 0.3192436993 0.6000000238 -0.01366550848
l 279 280
v 0.3123767078 0.6000000238 -0.01442281809
v 0.3158037961 0.6000000238 -0.01405163296
l 281 282
v 0.3089784086 0.6000000238 -0.01477753278
v 0.3123767078 0.6000000238 -0.01442281809
l 283 284
v 0.2404191643 0.6000000238 -0.05272222683
v 0.2372941822 0.6000000238 -0.05339492485
l 285 286
v 0.2311616242 0.6000000238 -0.05467298627
v 0.2281773984 0.6000000238 -0.05527373776
l 287 288
v 0.03140229359 0.6000000238 0.004774009343
v 0.03302937374 0.6000000238 0.004544923548
l 289 290
v 0.03532584384 0.6000000238 -0.03766242787
v 0.03406719491 0.6000000238 -0.03699173033
l 291 292
v 0.3206923604 0.6000000238 -0.03153198212
v 0.3168788254 0.6000000238 -0.03268350288
l 293 294
v 0.3130137026 0.6000000238 -0.03383654356
v 0.3091453314 0.6000000238 -0.03497643024
l 295 296
v 0.2388021797 0.6000000238 -0.01892667823
v 0.2423178405 0.6000000238 -0.01885996386
l 297 298
v 0.2342090607 0.6000000238 -0.05404497683
v 0.2311616242 0.6000000238 -0.05467298627
l 299 300
v 0.2037792057 0.6000000238 -0.01885535941
v 0.2071974725 0.6000000238 -0.01892165281
l 301 302
v 0.03302937374 0.6000000238 0.004544923548
v 0.03472538292 0.6000000238 0.004293258302
l 303 304
v 0.03659279272 0.6000000238 -0.03832205012
v 0.03532584384 0.6000000238 -0.03766242787
l 305 306
v 0.3168788254 0.6000000238 -0.03268350288
v 0.3130137026 0.6000000238 -0.03383654356
l 307 308
v 0.2372941822 0.6000000238 -0.05339492485
v 0.2342090607 0.6000000238 -0.05404497683
l 309 310
v 0.2066167146 0.6000000238 -0.0591298677
v 0.204203859 0.6000000238 -0.05949979275
l 311 312
v 0.03472538292 0.6000000238 0.004293258302
v 0.03646938875 0.6000000238 0.004021545872
l 313 314
v 0.03789652884 0.6000000238 -0.0389852114
v 0.03659279272 0.6000000238 -0.03832205012
l 315 316
v 0.3330623507 0.6000000238 -0.01197839156
v 0.3365205228 0.6000000238 -0.01152210962
l 317 318
v 0.305608511 0.6000000238 -0.01511601359
v 0.3089784086 0.6000000238 -0.01477753278
l 319 320
v 0.2423178405 0.6000000238 -0.01885996386
v 0.2458281368 0.6000000238 -0.01877973787
l 321 322
v 0.204203859 0.6000000238 -0.05949979275
v 0.2018460333 0.6000000238 -0.0598472096
l 323 324
v 0.03646938875 0.6000000238 0.004021545872
v 0.03826834634 0.6000000238 0.003728410229
l 325 326
v 0.03922409192 0.6000000238 -0.03964487091
v 0.03789652884 0.6000000238 -0.0389852114
l 327 328
v 0.3350327015 0.6000000238 -0.02707207575
v 0.3315832615 0.6000000238 -0.02816480398
l 329 330
v 0.3022660017 0.6000000238 -0.01543846074
v 0.305608511 0.6000000238 -0.01511601359
l 331 332
v 0.2435863763 0.6000000238 -0.05202615634
v 0.2404191643 0.6000000238 -0.05272222683
l 333 334
v 0.2003872246 0.6000000238 -0.01877632923
v 0.2037792057 0.6000000238 -0.01885535941
l 335 336
v 0.03826834634 0.6000000238 0.003728410229
v 0.04013026133 0.6000000238 0.00341222831
l 337 338
v 0.04057637975 0.6000000238 -0.04030124098
v 0.03922409192 0.6000000238 -0.03964487091
l 339 340
v 0.3567101955 0.6000000238 -0.008572019637
v 0.3600450158 0.6000000238 -0.008036615327
l 341 342
v 0.3365205228 0.6000000238 -0.01152210962
v 0.3399486244 0.6000000238 -0.01105600502
l 343 344
v 0.3091453314 0.6000000238 -0.03497643024
v 0.3052737415 0.6000000238 -0.03610315546
l 345 346
v 0.2458281368 0.6000000238 -0.01877973787
v 0.2493105531 0.6000000238 -0.01868646406
l 347 348
v 0.2018460333 0.6000000238 -0.0598472096
v 0.1995382607 0.6000000238 -0.06017322093
l 349 350
v 0.1969973296 0.6000000238 -0.01868395321
v 0.2003872246 0.6000000238 -0.01877632923
l 351 352
v 0.04013026133 0.6000000238 0.00341222831
v 0.04206531867 0.6000000238 0.003070936073
l 353 354
v 0.04195433483 0.6000000238 -0.04095454514
v 0.04057637975 0.6000000238 -0.04030124098
l 355 356
v 0.3600450158 0.6000000238 -0.008036615327
v 0.3633873463 0.6000000238 -0.007486381568
l 357 358
v 0.3624867201 0.6000000238 -0.01776486076
v 0.3603685796 0.6000000238 -0.01853478514
l 359 360
v 0.3383398354 0.6000000238 -0.02601157129
v 0.3350327015 0.6000000238 -0.02707207575
l 361 362
v 0.2989501059 0.6000000238 -0.01574506611
v 0.3022660017 0.6000000238 -0.01543846074
l 363 364
v 0.2467984259 0.6000000238 -0.05130591989
v 0.2435863763 0.6000000238 -0.05202615634
l 365 366
v 0.1995382607 0.6000000238 -0.06017322093
v 0.1972763091 0.6000000238 -0.06047875434
l 367 368
v 0.1903952062 0.6000000238 -0.01846481673
v 0.193660602 0.6000000238 -0.01857974753
l 369 370
v 0.04206531867 0.6000000238 0.003070936073
v 0.04408679903 0.6000000238 0.002701835474
l 371 372
v 0.04335538298 0.6000000238 -0.0416033864
v 0.04195433483 0.6000000238 -0.04095454514
l 373 374
v 0.3603685796 0.6000000238 -0.01853478514
v 0.3580274284 0.6000000238 -0.01937269978
l 375 376
v 0.3533827066 0.6000000238 -0.009092634544
v 0.3567101955 0.6000000238 -0.008572019637
l 377 378
v 0.3399486244 0.6000000238 -0.01105600502
v 0.343347162 0.6000000238 -0.01058013178
l 379 380
v 0.3052737415 0.6000000238 -0.03610315546
v 0.3013989329 0.6000000238 -0.03721668944
l 381 382
v 0.2493105531 0.6000000238 -0.01868646406
v 0.2527579069 0.6000000238 -0.01858042926
l 383 384
v 0.1972763091 0.6000000238 -0.06047875434
v 0.1950562447 0.6000000238 -0.06076474488
l 385 386
v 0.193660602 0.6000000238 -0.01857974753
v 0.1969973296 0.6000000238 -0.01868395321
l 387 388
v 0.1928637773 0.6000000238 -0.06103350222
v 0.1906728446 0.6000000238 -0.06128837168
l 389 390
v 0.04408679903 0.6000000238 0.002701835474
v 0.04621250927 0.6000000238 0.002301240573
l 391 392
v 0.04477670416 0.6000000238 -0.04224635661
v 0.04335538298 0.6000000238 -0.0416033864
l 393 394
v 0.3580274284 0.6000000238 -0.01937269978
v 0.3555964828 0.6000000238 -0.02022938244
l 395 396
v 0.3500587046 0.6000000238 -0.009599094279
v 0.3533827066 0.6000000238 -0.009092634544
l 397 398
v 0.3467169404 0.6000000238 -0.01009449176
v 0.3500587046 0.6000000238 -0.009599094279
l 399 400
v 0.3415223956 0.6000000238 -0.02497826889
v 0.3383398354 0.6000000238 -0.02601157129
l 401 402
v 0.2956599891 0.6000000238 -0.01603600755
v 0.2989501059 0.6000000238 -0.01574506611
l 403 404
v 0.2500582635 0.6000000238 -0.05056061596
v 0.2467984259 0.6000000238 -0.05130591989
l 405 406
v 0.1906728446 0.6000000238 -0.06128837168
v 0.1884927899 0.6000000238 -0.0615282543
l 407 408
v 0.04621250927 0.6000000238 0.002301240573
v 0.0485823974 0.6000000238 0.00184123416
l 409 410
v 0.04621886462 0.6000000238 -0.04288354144
v 0.04477670416 0.6000000238 -0.04224635661
l 411 412
v 0.3633873463 0.6000000238 -0.007486381568
v 0.3667370081 0.6000000238 -0.006921048276
l 413 414
v 0.3555964828 0.6000000238 -0.02022938244
v 0.3530580699 0.6000000238 -0.02111072838
l 415 416
v 0.3530580699 0.6000000238 -0.02111072838
v 0.3503927886 0.6000000238 -0.02202309854
l 417 418
v 0.343347162 0.6000000238 -0.01058013178
v 0.3467169404 0.6000000238 -0.01009449176
l 419 420
v 0.3013989329 0.6000000238 -0.03721668944
v 0.2975257337 0.6000000238 -0.0383156538
l 421 422
v 0.2727869153 0.6000000238 -0.01768098958
v 0.2760614157 0.6000000238 -0.01748624071
l 423 424
v 0.2695100009 0.6000000238 -0.01786230505
v 0.2727869153 0.6000000238 -0.01768098958
l 425 426
v 0.1950562447 0.6000000238 -0.06076474488
v 0.1928637773 0.6000000238 -0.06103350222
l 427 428
v 0.1872006208 0.6000000238 -0.01833964325
v 0.1903952062 0.6000000238 -0.01846481673
l 429 430
v 0.05220864341 0.6000000238 -0.04537658766
v 0.05067662895 0.6000000238 -0.04476145655
l 431 432
v 0.0485823974 0.6000000238 0.00184123416
v 0.05097031966 0.6000000238 0.001365326345
l 433 434
v 0.04768246412 0.6000000238 -0.04351505265
v 0.04621886462 0.6000000238 -0.04288354144
l 435 436
v 0.3678316176 0.6000000238 -0.01575802267
v 0.3661736846 0.6000000238 -0.01639251783
l 437 438
v 0.3503927886 0.6000000238 -0.02202309854
v 0.3475738168 0.6000000238 -0.02297514118
l 439 440
v 0.3445959687 0.6000000238 -0.02396747656
v 0.3415223956 0.6000000238 -0.02497826889
l 441 442
v 0.2923946381 0.6000000238 -0.01631147042
v 0.2956599891 0.6000000238 -0.01603600755
l 443 444
v 0.2760614157 0.6000000238 -0.01748624071
v 0.2793334126 0.6000000238 -0.01727807149
l 445 446
v 0.2745674253 0.6000000238 -0.0445362702
v 0.2708833218 0.6000000238 -0.04548547417
l 447 448
v 0.2527579069 0.6000000238 -0.01858042926
v 0.2561714649 0.6000000238 -0.01846174151
l 449 450
v 0.1884927899 0.6000000238 -0.0615282543
v 0.1863234937 0.6000000238 -0.06175325066
l 451 452
v 0.0537648499 0.6000000238 -0.04598645121
v 0.05220864341 0.6000000238 -0.04537658766
l 453 454
v 0.05097031966 0.6000000238 0.001365326345
v 0.05355080217 0.6000000238 0.0008393303142
l 455 456
v 0.04916815087 0.6000000238 -0.0441409871
v 0.04768246412 0.6000000238 -0.04351505265
l 457 458
v 0.3644031584 0.6000000238 -0.0170574151
v 0.3624867201 0.6000000238 -0.01776486076
l 459 460
v 0.2975257337 0.6000000238 -0.0383156538
v 0.2936566174 0.6000000238 -0.03939935565
l 461 462
v 0.2783014774 0.6000000238 -0.04355977848
v 0.2745674253 0.6000000238 -0.0445362702
l 463 464
v 0.2662206292 0.6000000238 -0.01803067513
v 0.2695100009 0.6000000238 -0.01786230505
l 465 466
v 0.2561714649 0.6000000238 -0.01846174151
v 0.2595523596 0.6000000238 -0.01833049022
l 467 468
v 0.2533707619 0.6000000238 -0.04978887737
v 0.2500582635 0.6000000238 -0.05056061596
l 469 470
v 0.1840713173 0.6000000238 -0.01820426248
v 0.1872006208 0.6000000238 -0.01833964325
l 471 472
v 0.05854837596 0.6000000238 -0.04777151346
v 0.05693544075 0.6000000238 -0.04718429223
l 473 474
v 0.05534105748 0.6000000238 -0.04658927768
v 0.0537648499 0.6000000238 -0.04598645121
l 475 476
v 0.05355080217 0.6000000238 0.0008393303142
v 0.05639021471 0.6000000238 0.0002494404034
l 477 478
v 0.05067662895 0.6000000238 -0.04476145655
v 0.04916815087 0.6000000238 -0.0441409871
l 479 480
v 0.3475738168 0.6000000238 -0.02297514118
v 0.3445959687 0.6000000238 -0.02396747656
l 481 482
v 0.2891335189 0.6000000238 -0.01657316647
v 0.2923946381 0.6000000238 -0.01631147042
l 483 484
v 0.2793334126 0.6000000238 -0.01727807149
v 0.2826028168 0.6000000238 -0.01705649495
l 485 486
v 0.2708833218 0.6000000238 -0.04548547417
v 0.2672463059 0.6000000238 -0.04640831053
l 487 488
v 0.2567408383 0.6000000238 -0.04898928106
v 0.2533707619 0.6000000238 -0.04978887737
l 489 490
v 0.1863234937 0.6000000238 -0.06175325066
v 0.184164837 0.6000000238 -0.06196343899
l 491 492
v 0.06018027291 0.6000000238 -0.04835095629
v 0.05854837596 0.6000000238 -0.04777151346
l 493 494
v 0.05693544075 0.6000000238 -0.04718429223
v 0.05534105748 0.6000000238 -0.04658927768
l 495 496
v 4.752502558e-11 0.6000000238 -2.51561838e-09
v 7.876277959e-05 0.6000000238 0.0004591356847
l 497 498
v 0.2936566174 0.6000000238 -0.03939935565
v 0.2897916436 0.6000000238 -0.04046781734
l 499 500
v 0.2858695388 0.6000000238 -0.01682152227
v 0.2891335189 0.6000000238 -0.01657316647
l 501 502
v 0.2820885777 0.6000000238 -0.0425549522
v 0.2783014774 0.6000000238 -0.04355977848
l 503 504
v 0.2595523596 0.6000000238 -0.01833049022
v 0.2629017234 0.6000000238 -0.0181867741
l 505 506
v 0.184164837 0.6000000238 -0.06196343899
v 0.1820166856 0.6000000238 -0.06215891987
l 507 508
v 0.06350263208 0.6000000238 -0.04948654026
v 0.06183154136 0.6000000238 -0.04892262444
l 509 510
v 0.06183154136 0.6000000238 -0.04892262444
v 0.06018027291 0.6000000238 -0.04835095629
l 511 512
v 0.05639021471 0.6000000238 0.0002494404034
v 0.06035310403 0.6000000238 -0.0005871524918
l 513 514
v 0.2897916436 0.6000000238 -0.04046781734
v 0.2859307528 0.6000000238 -0.04152105004
l 515 516
v 0.2859307528 0.6000000238 -0.04152105004
v 0.2820885777 0.6000000238 -0.0425549522
l 517 518
v 0.2629017234 0.6000000238 -0.0181867741
v 0.2662206292 0.6000000238 -0.01803067513
l 519 520
v 0.2601731122 0.6000000238 -0.04816042259
v 0.2567408383 0.6000000238 -0.04898928106
l 521 522
v 0.07038104534 0.6000000238 -0.05166082084
v 0.06863486022 0.6000000238 -0.05113048479
l 523 524
v 0.06690577418 0.6000000238 -0.05059106275
v 0.06519400328 0.6000000238 -0.05004272237
l 525 526
v 0.06519400328 0.6000000238 -0.05004272237
v 0.06350263208 0.6000000238 -0.04948654026
l 527 528
v 0.06035310403 0.6000000238 -0.0005871524918
v 0.06609237939 0.6000000238 -0.001812578179
l 529 530
v 0.2826028168 0.6000000238 -0.01705649495
v 0.2858695388 0.6000000238 -0.01682152227
l 531 532
v 0.2636729181 0.6000000238 -0.04730070382
v 0.2601731122 0.6000000238 -0.04816042259
l 533 534
v 0.1810025275 0.6000000238 -0.01805868931
v 0.1840713173 0.6000000238 -0.01820426248
l 535 536
v 0.07214464247 0.6000000238 -0.05218206719
v 0.07038104534 0.6000000238 -0.05166082084
l 537 538
v 0.06863486022 0.6000000238 -0.05113048479
v 0.06690577418 0.6000000238 -0.05059106275
l 539 540
v 0.06609237939 0.6000000238 -0.001812578179
v 0.0716214776 0.6000000238 -0.002993116155
l 541 542
v 0.2672463059 0.6000000238 -0.04640831053
v 0.2636729181 0.6000000238 -0.04730070382
l 543 544
v 0.1820166856 0.6000000238 -0.06215891987
v 0.1798789203 0.6000000238 -0.06233977526
l 545 546
v 0.07572538406 0.6000000238 -0.05319718644
v 0.07392597198 0.6000000238 -0.05269419402
l 547 548
v 0.07392597198 0.6000000238 -0.05269419402
v 0.07214464247 0.6000000238 -0.05218206719
l 549 550
v 0.0716214776 0.6000000238 -0.002993116155
v 0.07534567267 0.6000000238 -0.003779910272
l 551 552
v 0.3667370081 0.6000000238 -0.006921048276
v 0.3699947894 0.6000000238 -0.006356956437
l 553 554
v 0.1798789203 0.6000000238 -0.06233977526
v 0.177751407 0.6000000238 -0.06250610203
l 555 556
v 0.1779900342 0.6000000238 -0.01790293865
v 0.1810025275 0.6000000238 -0.01805868931
l 557 558
v 0.07937984914 0.6000000238 -0.05417569354
v 0.07754321396 0.6000000238 -0.05369102582
l 559 560
v 0.07754321396 0.6000000238 -0.05369102582
v 0.07572538406 0.6000000238 -0.05319718644
l 561 562
v 0.07534567267 0.6000000238 -0.003779910272
v 0.07888840139 0.6000000238 -0.004517205525
l 563 564
v 0.3708903193 0.6000000238 -0.01455078647
v 0.3693987727 0.6000000238 -0.01514596213
l 565 566
v 0.177751407 0.6000000238 -0.06250610203
v 0.1756308526 0.6000000238 -0.06265825778
l 567 568
v 0.1750301421 0.6000000238 -0.01773701608
v 0.1779900342 0.6000000238 -0.01790293865
l 569 570
v 0.08309911937 0.6000000238 -0.05511445925
v 0.08123365045 0.6000000238 -0.0546506457
l 571 572
v 0.08123365045 0.6000000238 -0.0546506457
v 0.07937984914 0.6000000238 -0.05417569354
l 573 574
v 0.07888840139 0.6000000238 -0.004517205525
v 0.08264771849 0.6000000238 -0.00528579345
l 575 576
v 0.3699947894 0.6000000238 -0.006356956437
v 0.3731312454 0.6000000238 -0.005799553357
l 577 578
v 0.3661736846 0.6000000238 -0.01639251783
v 0.3644031584 0.6000000238 -0.0170574151
l 579 580
v 0.1756308526 0.6000000238 -0.06265825778
v 0.1735144854 0.6000000238 -0.06279650331
l 581 582
v 0.08497622609 0.6000000238 -0.05556707829
v 0.08309911937 0.6000000238 -0.05511445925
l 583 584
v 0.08264771849 0.6000000238 -0.00528579345
v 0.08627427369 0.6000000238 -0.006012837403
l 585 586
v 0.3750323355 0.6000000238 -0.01282110158
v 0.3736982942 0.6000000238 -0.01339172851
l 587 588
v 0.1735144854 0.6000000238 -0.06279650331
v 0.1714024097 0.6000000238 -0.0629208684
l 589 590
v 0.172119543 0.6000000238 -0.01756093092
v 0.1750301421 0.6000000238 -0.01773701608
l 591 592
v 0.08875938505 0.6000000238 -0.05643716082
v 0.0868588835 0.6000000238 -0.05600704253
l 593 594
v 0.0868588835 0.6000000238 -0.05600704253
v 0.08497622609 0.6000000238 -0.05556707829
l 595 596
v 0.08627427369 0.6000000238 -0.006012837403
v 0.08978229016 0.6000000238 -0.006701776292
l 597 598
v 0.3761619031 0.6000000238 -0.005246678833
v 0.3787713349 0.6000000238 -0.004758486059
l 599 600
v 0.3731312454 0.6000000238 -0.005799553357
v 0.3761619031 0.6000000238 -0.005246678833
l 601 602
v 0.3736982942 0.6000000238 -0.01339172851
v 0.3723193109 0.6000000238 -0.0139676556
l 603 604
v 0.1714024097 0.6000000238 -0.0629208684
v 0.1692946851 0.6000000238 -0.06303136796
l 605 606
v 0.09259577096 0.6000000238 -0.05726327375
v 0.09067167342 0.6000000238 -0.0568559207
l 607 608
v 0.09067167342 0.6000000238 -0.0568559207
v 0.08875938505 0.6000000238 -0.05643716082
l 609 610
v 0.08978229016 0.6000000238 -0.006701776292
v 0.09318657964 0.6000000238 -0.00735606486
l 611 612
v 0.3799912632 0.6000000238 -0.01056650374
v 0.3788024485 0.6000000238 -0.01112793852
l 613 614
v 0.3775813282 0.6000000238 -0.01169029903
v 0.3763255477 0.6000000238 -0.01225435361
l 615 616
v 0.3693987727 0.6000000238 -0.01514596213
v 0.3678316176 0.6000000238 -0.01575802267
l 617 618
v 0.1692554355 0.6000000238 -0.0173747018
v 0.172119543 0.6000000238 -0.01756093092
l 619 620
v 0.09647499025 0.6000000238 -0.05804262683
v 0.09453170747 0.6000000238 -0.05765915662
l 621 622
v 0.09453170747 0.6000000238 -0.05765915662
v 0.09259577096 0.6000000238 -0.05726327375
l 623 624
v 0.09318657964 0.6000000238 -0.00735606486
v 0.09649902582 0.6000000238 -0.007978476584
l 625 626
v 0.3787713349 0.6000000238 -0.004758486059
v 0.3812345564 0.6000000238 -0.004285970237
l 627 628
v 0.3763255477 0.6000000238 -0.01225435361
v 0.3750323355 0.6000000238 -0.01282110158
l 629 630
v 0.1692946851 0.6000000238 -0.06303136796
v 0.1671914011 0.6000000238 -0.06312805414
l 631 632
v 0.09842093289 0.6000000238 -0.05841280892
v 0.09647499025 0.6000000238 -0.05804262683
l 633 634
v 0.09649902582 0.6000000238 -0.007978476584
v 0.09970106184 0.6000000238 -0.00856627617
l 635 636
v 0.3823708594 0.6000000238 -0.009397874586
v 0.3811624944 0.6000000238 -0.009999057278
l 637 638
v 0.3723193109 0.6000000238 -0.0139676556
v 0.3708903193 0.6000000238 -0.01455078647
l 639 640
v 0.1664202213 0.6000000238 -0.01717726141
v 0.1692554355 0.6000000238 -0.0173747018
l 641 642
v 0.1042732745 0.6000000238 -0.05944344774
v 0.1023202166 0.6000000238 -0.05911324546
l 643 644
v 0.1003693864 0.6000000238 -0.05876969546
v 0.09842093289 0.6000000238 -0.05841280892
l 645 646
v 0.09970106184 0.6000000238 -0.00856627617
v 0.1028961837 0.6000000238 -0.009138920344
l 647 648
v 0.3788024485 0.6000000238 -0.01112793852
v 0.3775813282 0.6000000238 -0.01169029903
l 649 650
v 0.1671914011 0.6000000238 -0.06312805414
v 0.165092662 0.6000000238 -0.06321092695
l 651 652
v 0.1122896373 0.6000000238 -0.01073948666
v 0.1153611094 0.6000000238 -0.01123513561
l 653 654
v 0.1091891602 0.6000000238 -0.01022514049
v 0.1122896373 0.6000000238 -0.01073948666
l 655 656
v 0.1028961837 0.6000000238 -0.009138920344
v 0.1060584486 0.6000000238 -0.009691744111
l 657 658
v 0.165092662 0.6000000238 -0.06321092695
v 0.1629985124 0.6000000238 -0.06328003854
l 659 660
v 0.163598001 0.6000000238 -0.01696739718
v 0.1664202213 0.6000000238 -0.01717726141
l 661 662
v 0.1607886404 0.6000000238 -0.01674507745
v 0.163598001 0.6000000238 -0.01696739718
l 663 664
v 0.1081855223 0.6000000238 -0.06006370485
v 0.1062284186 0.6000000238 -0.0597602725
l 665 666
v 0.1060584486 0.6000000238 -0.009691744111
v 0.1091891602 0.6000000238 -0.01022514049
l 667 668
v 0.1629985124 0.6000000238 -0.06328003854
v 0.1609090716 0.6000000238 -0.06333541125
l 669 670
v 0.1609090716 0.6000000238 -0.06333541125
v 0.1588240415 0.6000000238 -0.06337709725
l 671 672
v 0.1184047163 0.6000000238 -0.01171241794
v 0.1214196756 0.6000000238 -0.01217130851
l 673 674
v 0.1153611094 0.6000000238 -0.01123513561
v 0.1184047163 0.6000000238 -0.01171241794
l 675 676
v 0.1023202166 0.6000000238 -0.05911324546
v 0.1003693864 0.6000000238 -0.05876969546
l 677 678
v 0.1588240415 0.6000000238 -0.06337709725
v 0.1567424536 0.6000000238 -0.06340514123
l 679 680
v 0.1579920799 0.6000000238 -0.01651035063
v 0.1607886404 0.6000000238 -0.01674507745
l 681 682
v 0.1552082151 0.6000000238 -0.0162632633
v 0.1579920799 0.6000000238 -0.01651035063
l 683 684
v 0.1214196756 0.6000000238 -0.01217130851
v 0.1243938208 0.6000000238 -0.01261005923
l 685 686
v 0.1140774414 0.6000000238 -0.06089481339
v 0.1121077761 0.6000000238 -0.06063069031
l 687 688
v 0.1062284186 0.6000000238 -0.0597602725
v 0.1042732745 0.6000000238 -0.05944344774
l 689 690
v 0.1567424536 0.6000000238 -0.06340514123
v 0.1546643823 0.6000000238 -0.06341957301
l 691 692
v 0.1546643823 0.6000000238 -0.06341957301
v 0.1525899023 0.6000000238 -0.06342041492
l 693 694
v 0.1180356741 0.6000000238 -0.06138437614
v 0.1160534397 0.6000000238 -0.06114605442
l 695 696
v 0.1101445258 0.6000000238 -0.06035373732
v 0.1081855223 0.6000000238 -0.06006370485
l 697 698
v 0.1525899023 0.6000000238 -0.06342041492
v 0.1505191475 0.6000000238 -0.06340768933
l 699 700
v 0.1524369568 0.6000000238 -0.01600386202
v 0.1552082151 0.6000000238 -0.0162632633
l 701 702
v 0.1496782601 0.6000000238 -0.01573219523
v 0.1524369568 0.6000000238 -0.01600386202
l 703 704
v 0.1273278147 0.6000000238 -0.01302897744
v 0.1302238107 0.6000000238 -0.01342858002
l 705 706
v 0.1243938208 0.6000000238 -0.01261005923
v 0.1273278147 0.6000000238 -0.01302897744
l 707 708
v 0.1121077761 0.6000000238 -0.06063069031
v 0.1101445258 0.6000000238 -0.06035373732
l 709 710
v 0.1505191475 0.6000000238 -0.06340768933
v 0.1484522074 0.6000000238 -0.06338142604
l 711 712
v 0.1484522074 0.6000000238 -0.06338142604
v 0.1463891864 0.6000000238 -0.06334163249
l 713 714
v 0.1240188703 0.6000000238 -0.06202139333
v 0.1220184863 0.6000000238 -0.06182208657
l 715 716
v 0.1160534397 0.6000000238 -0.06114605442
v 0.1140774414 0.6000000238 -0.06089481339
l 717 718
v 0.3812345564 0.6000000238 -0.004285970237
v 0.3835791945 0.6000000238 -0.003824397922
l 719 720
v 0.1463891864 0.6000000238 -0.06334163249
v 0.1443302035 0.6000000238 -0.06328836083
l 721 722
v 0.1469320208 0.6000000238 -0.01544830762
v 0.1496782601 0.6000000238 -0.01573219523
l 723 724
v 0.1330837756 0.6000000238 -0.01380933821
v 0.1359095275 0.6000000238 -0.01417168323
l 725 726
v 0.1302238107 0.6000000238 -0.01342858002
v 0.1330837756 0.6000000238 -0.01380933821
l 727 728
v 0.1200240552 0.6000000238 -0.06160973385
v 0.1180356741 0.6000000238 -0.06138437614
l 729 730
v 0.3846925497 0.6000000238 -0.00819988735
v 0.3835058212 0.6000000238 -0.008818907663
l 731 732
v 0.1443302035 0.6000000238 -0.06328836083
v 0.1422753781 0.6000000238 -0.06322161853
l 733 734
v 0.1441981941 0.6000000238 -0.01515224855
v 0.1469320208 0.6000000238 -0.01544830762
l 735 736
v 0.1300548166 0.6000000238 -0.06254062057
v 0.1280371249 0.6000000238 -0.06238069385
l 737 738
v 0.1220184863 0.6000000238 -0.06182208657
v 0.1200240552 0.6000000238 -0.06160973385
l 739 740
v 0.3811624944 0.6000000238 -0.009999057278
v 0.3799912632 0.6000000238 -0.01056650374
l 741 742
v 0.1422753781 0.6000000238 -0.06322161853
v 0.1402254552 0.6000000238 -0.06314145774
l 743 744
v 0.1387026906 0.6000000238 -0.01451601088
v 0.1414647996 0.6000000238 -0.01484268438
l 745 746
v 0.1359095275 0.6000000238 -0.01417168323
v 0.1387026906 0.6000000238 -0.01451601088
l 747 748
v 0.1260251254 0.6000000238 -0.06220760569
v 0.1240188703 0.6000000238 -0.06202139333
l 749 750
v 0.1402254552 0.6000000238 -0.06314145774
v 0.1381806731 0.6000000238 -0.0630479157
l 751 752
v 0.1414647996 0.6000000238 -0.01484268438
v 0.1441981941 0.6000000238 -0.01515224855
l 753 754
v 0.1361411214 0.6000000238 -0.06294102222
v 0.1341069043 0.6000000238 -0.062820822
l 755 756
v 0.1280371249 0.6000000238 -0.06238069385
v 0.1260251254 0.6000000238 -0.06220760569
l 757 758
v 0.3835791945 0.6000000238 -0.003824397922
v 0.3860599995 0.6000000238 -0.003322172677
l 759 760
v 0.1381806731 0.6000000238 -0.0630479157
v 0.1361411214 0.6000000238 -0.06294102222
l 761 762
v 0.1320781112 0.6000000238 -0.0626873374
v 0.1300548166 0.6000000238 -0.06254062057
l 763 764
v 0.3872781396 0.6000000238 -0.006809152663
v 0.3859437704 0.6000000238 -0.007533519994
l 765 766
v 0.1341069043 0.6000000238 -0.062820822
v 0.1320781112 0.6000000238 -0.0626873374
l 767 768
v 0.3860599995 0.6000000238 -0.003322172677
v 0.3880414665 0.6000000238 -0.002909416799
l 769 770
v 0.3835058212 0.6000000238 -0.008818907663
v 0.3823708594 0.6000000238 -0.009397874586
l 771 772
v 0.3880414665 0.6000000238 -0.002909416799
v 0.389842689 0.6000000238 -0.002522998489
l 773 774
v 0.3859437704 0.6000000238 -0.007533519994
v 0.3846925497 0.6000000238 -0.00819988735
l 775 776
v 0.389842689 0.6000000238 -0.002522998489
v 0.3915145099 0.6000000238 -0.002152832923
l 777 778
v 0.3887145221 0.6000000238 -0.006015811581
v 0.3872781396 0.6000000238 -0.006809152663
l 779 780
v 0.3930842876 0.6000000238 -0.001793580945
v 0.394487381 0.6000000238 -0.001461373176
l 781 782
v 0.3902750313 0.6000000238 -0.005141788628
v 0.3887145221 0.6000000238 -0.006015811581
l 783 784
v 0.3952694535 0.6000000238 -0.00235766056
v 0.3942481279 0.6000000238 -0.002916218713
l 785 786
v 0.392708689 0.6000000238 -0.003772657132
v 0.3902750313 0.6000000238 -0.005141788628
l 787 788
v 0.3915145099 0.6000000238 -0.002152832923
v 0.3930842876 0.6000000238 -0.001793580945
l 789 790
v 0.394487381 0.6000000238 -0.001461373176
v 0.3957585394 0.6000000238 -0.001149158459
l 791 792
v 0.3961834908 0.6000000238 -0.001868224819
v 0.3952694535 0.6000000238 -0.00235766056
l 793 794
v 0.3957585394 0.6000000238 -0.001149158459
v 0.39693591 0.6000000238 -0.0008484020946
l 795 796
v 0.3970254958 0.6000000238 -0.001428963151
v 0.3961834908 0.6000000238 -0.001868224819
l 797 798
v 0.39693591 0.6000000238 -0.0008484020946
v 0.3980402052 0.6000000238 -0.0005545325112
l 799 800
v 0.3978151083 0.6000000238 -0.00102927594
v 0.3970254958 0.6000000238 -0.001428963151
l 801 802
v 0.3985647857 0.6000000238 -0.0006624969537
v 0.3978151083 0.6000000238 -0.00102927594
l 803 804
v 0.3980402052 0.6000000238 -0.0005545325112
v 0.3990853131 0.6000000238 -0.0002644782362
l 805 806
v 0.3992819786 0.6000000238 -0.0003245156258
v 0.3985647857 0.6000000238 -0.0006624969537
l 807 808
v 0.400000006 0.6000000238 -1.56823099e-09
v 0.3992819786 0.6000000238 -0.0003245156258
l 809 810
v 0.3990853131 0.6000000238 -0.0002644782362
v 0.400000006 0.6000000238 -1.56823099e-09
l 811 812
v 0.3942481279 0.6000000238 -0.002916218713
v 0.392708689 0.6000000238 -0.003772657132
l 813 814
v 7.699129128e-06 -0.200000003 -0.0003407362965
v 4.752502558e-11 -0.200000003 -2.515619268e-09
l 815 816
v 2.884242895e-05 -0.200000003 -0.0009478979628
v 7.699129128e-06 -0.200000003 -0.0003407362965
l 817 818
v 5.870025052e-05 -0.200000003 -0.001506474102
v 2.884242895e-05 -0.200000003 -0.0009478979628
l 819 820
v 9.753450286e-05 -0.200000003 -0.002027546056
v 5.870025052e-05 -0.200000003 -0.001506474102
l 821 822
v 0.0001454967423 -0.200000003 -0.002518262481
v 9.753450286e-05 -0.200000003 -0.002027546056
l 823 824
v 0.0002026822185 -0.200000003 -0.002983581973
v 0.0001454967423 -0.200000003 -0.002518262481
l 825 826
v 0.0002691492264 -0.200000003 -0.003427079879
v 0.0002026822185 -0.200000003 -0.002983581973
l 827 828
v 0.0003453023965 -0.200000003 -0.003853350645
v 0.0002691492264 -0.200000003 -0.003427079879
l 829 830
v 0.0004353494442 -0.200000003 -0.004282250069
v 0.0003453023965 -0.200000003 -0.003853350645
l 831 832
v 0.0005423876573 -0.200000003 -0.004722107202
v 0.0004353494442 -0.200000003 -0.004282250069
l 833 834
v 0.0006675016484 -0.200000003 -0.005174528342
v 0.0005423876573 -0.200000003 -0.004722107202
l 835 836
v 0.0008119193953 -0.200000003 -0.005641541909
v 0.0006675016484 -0.200000003 -0.005174528342
l 837 838
v 0.0009772132616 -0.200000003 -0.006125746761
v 0.0008119193953 -0.200000003 -0.005641541909
l 839 840
v 0.001165079186 -0.200000003 -0.006629616488
v 0.0009772132616 -0.200000003 -0.006125746761
l 841 842
v 0.001354631735 -0.200000003 -0.007101215422
v 0.001165079186 -0.200000003 -0.006629616488
l 843 844
v 0.001565384911 -0.200000003 -0.00759294536
v 0.001354631735 -0.200000003 -0.007101215422
l 845 846
v 0.001799894497 -0.200000003 -0.008109270595
v 0.001565384911 -0.200000003 -0.00759294536
l 847 848
v 0.002062256215 -0.200000003 -0.008657549508
v 0.001799894497 -0.200000003 -0.008109270595
l 849 850
v 0.002372783609 -0.200000003 -0.00927558355
v 0.002062256215 -0.200000003 -0.008657549508
l 851 852
v 0.002697692486 -0.200000003 -0.009891561233
v 0.002372783609 -0.200000003 -0.00927558355
l 853 854
v 0.003037199145 -0.200000003 -0.01050566044
v 0.002697692486 -0.200000003 -0.009891561233
l 855 856
v 0.003391537583 -0.200000003 -0.01111805905
v 0.003037199145 -0.200000003 -0.01050566044
l 857 858
v 0.003760959487 -0.200000003 -0.01172893774
v 0.003391537583 -0.200000003 -0.01111805905
l 859 860
v 0.00414573634 -0.200000003 -0.01233847812
v 0.003760959487 -0.200000003 -0.01172893774
l 861 862
v 0.004546160344 -0.200000003 -0.01294686273
v 0.00414573634 -0.200000003 -0.01233847812
l 863 864
v 0.004962589592 -0.200000003 -0.01355434768
v 0.004546160344 -0.200000003 -0.01294686273
l 865 866
v 0.005397758912 -0.200000003 -0.01416441612
v 0.004962589592 -0.200000003 -0.01355434768
l 867 868
v 0.005853902083 -0.200000003 -0.01477951184
v 0.005397758912 -0.200000003 -0.01416441612
l 869 870
v 0.006332010496 -0.200000003 -0.01540037245
v 0.005853902083 -0.200000003 -0.01477951184
l 871 872
v 0.006833204068 -0.200000003 -0.01602784917
v 0.006332010496 -0.200000003 -0.01540037245
l 873 874
v 0.007358780131 -0.200000003 -0.01666293852
v 0.006833204068 -0.200000003 -0.01602784917
l 875 876
v 0.007910262793 -0.200000003 -0.01730680652
v 0.007358780131 -0.200000003 -0.01666293852
l 877 878
v 0.008489466272 -0.200000003 -0.01796086878
v 0.007910262793 -0.200000003 -0.01730680652
l 879 880
v 0.009098570794 -0.200000003 -0.01862682588
v 0.008489466272 -0.200000003 -0.01796086878
l 881 882
v 0.009738425724 -0.200000003 -0.01930487715
v 0.009098570794 -0.200000003 -0.01862682588
l 883 884
v 0.01039841678 -0.200000003 -0.01998364553
v 0.009738425724 -0.200000003 -0.01930487715
l 885 886
v 0.01107766014 -0.200000003 -0.02066218294
v 0.01039841678 -0.200000003 -0.01998364553
l 887 888
v 0.01177682448 -0.200000003 -0.02134086378
v 0.01107766014 -0.200000003 -0.02066218294
l 889 890
v 0.01249665208 -0.200000003 -0.02202008665
v 0.01177682448 -0.200000003 -0.02134086378
l 891 892
v 0.01323732641 -0.200000003 -0.02269972302
v 0.01249665208 -0.200000003 -0.02202008665
l 893 894
v 0.01388658211 -0.200000003 -0.02328044921
v 0.01323732641 -0.200000003 -0.02269972302
l 895 896
v 0.0146701606 -0.200000003 -0.0239638444
v 0.01388658211 -0.200000003 -0.02328044921
l 897 898
v 0.01547807828 -0.200000003 -0.02464974858
v 0.0146701606 -0.200000003 -0.0239638444
l 899 900
v 0.0163086839 -0.200000003 -0.02533647045
v 0.01547807828 -0.200000003 -0.02464974858
l 901 902
v 0.01716068015 -0.200000003 -0.02602272481
v 0.0163086839 -0.200000003 -0.02533647045
l 903 904
v 0.01803484373 -0.200000003 -0.02670886181
v 0.01716068015 -0.200000003 -0.02602272481
l 905 906
v 0.01893205009 -0.200000003 -0.02739525959
v 0.01803484373 -0.200000003 -0.02670886181
l 907 908
v 0.01985325292 -0.200000003 -0.02808233723
v 0.01893205009 -0.200000003 -0.02739525959
l 909 910
v 0.02079952881 -0.200000003 -0.02877056412
v 0.01985325292 -0.200000003 -0.02808233723
l 911 912
v 0.02177207172 -0.200000003 -0.02946046926
v 0.02079952881 -0.200000003 -0.02877056412
l 913 914
v 0.02277220599 -0.200000003 -0.03015263192
v 0.02177207172 -0.200000003 -0.02946046926
l 915 916
v 0.02379771695 -0.200000003 -0.03084523045
v 0.02277220599 -0.200000003 -0.03015263192
l 917 918
v 0.02484434843 -0.200000003 -0.03153526038
v 0.02379771695 -0.200000003 -0.03084523045
l 919 920
v 0.02591281198 -0.200000003 -0.03222299367
v 0.02484434843 -0.200000003 -0.03153526038
l 921 922
v 0.02700391971 -0.200000003 -0.03290870413
v 0.02591281198 -0.200000003 -0.03222299367
l 923 924
v 0.02811855264 -0.200000003 -0.03359269723
v 0.02700391971 -0.200000003 -0.03290870413
l 925 926
v 0.02925768495 -0.200000003 -0.03427531198
v 0.02811855264 -0.200000003 -0.03359269723
l 927 928
v 0.03042238764 -0.200000003 -0.03495691717
v 0.02925768495 -0.200000003 -0.03427531198
l 929 930
v 0.0316138342 -0.200000003 -0.03563791513
v 0.03042238764 -0.200000003 -0.03495691717
l 931 932
v 0.03283004835 -0.200000003 -0.03631694242
v 0.0316138342 -0.200000003 -0.03563791513
l 933 934
v 0.03406719491 -0.200000003 -0.03699173033
v 0.03283004835 -0.200000003 -0.03631694242
l 935 936
v 0.03532584384 -0.200000003 -0.03766242787
v 0.03406719491 -0.200000003 -0.03699173033
l 937 938
v 0.03659279272 -0.200000003 -0.03832205012
v 0.03532584384 -0.200000003 -0.03766242787
l 939 940
v 0.03789652884 -0.200000003 -0.0389852114
v 0.03659279272 -0.200000003 -0.03832205012
l 941 942
v 0.03922409192 -0.200000003 -0.03964487091
v 0.03789652884 -0.200000003 -0.0389852114
l 943 944
v 0.04057637975 -0.200000003 -0.04030124098
v 0.03922409192 -0.200000003 -0.03964487091
l 945 946
v 0.04195433483 -0.200000003 -0.04095454514
v 0.04057637975 -0.200000003 -0.04030124098
l 947 948
v 0.04335538298 -0.200000003 -0.0416033864
v 0.04195433483 -0.200000003 -0.04095454514
l 949 950
v 0.04477670416 -0.200000003 -0.04224635661
v 0.04335538298 -0.200000003 -0.0416033864
l 951 952
v 0.04621886462 -0.200000003 -0.04288354144
v 0.04477670416 -0.200000003 -0.04224635661
l 953 954
v 0.04768246412 -0.200000003 -0.04351505265
v 0.04621886462 -0.200000003 -0.04288354144
l 955 956
v 0.04916815087 -0.200000003 -0.0441409871
v 0.04768246412 -0.200000003 -0.04351505265
l 957 958
v 0.05067662895 -0.200000003 -0.04476145655
v 0.04916815087 -0.200000003 -0.0441409871
l 959 960
v 0.05220864341 -0.200000003 -0.04537658766
v 0.05067662895 -0.200000003 -0.04476145655
l 961 962
v 0.0537648499 -0.200000003 -0.04598645121
v 0.05220864341 -0.200000003 -0.04537658766
l 963 964
v 0.05534105748 -0.200000003 -0.04658927768
v 0.0537648499 -0.200000003 -0.04598645121
l 965 966
v 0.05693544075 -0.200000003 -0.04718429223
v 0.05534105748 -0.200000003 -0.04658927768
l 967 968
v 0.05854837596 -0.200000003 -0.04777151346
v 0.05693544075 -0.200000003 -0.04718429223
l 969 970
v 0.06018027291 -0.200000003 -0.04835095629
v 0.05854837596 -0.200000003 -0.04777151346
l 971 972
v 0.06183154136 -0.200000003 -0.04892262444
v 0.06018027291 -0.200000003 -0.04835095629
l 973 974
v 0.06350263208 -0.200000003 -0.04948654026
v 0.06183154136 -0.200000003 -0.04892262444
l 975 976
v 0.06519400328 -0.200000003 -0.05004272237
v 0.06350263208 -0.200000003 -0.04948654026
l 977 978
v 0.06690577418 -0.200000003 -0.05059106275
v 0.06519400328 -0.200000003 -0.05004272237
l 979 980
v 0.06863486022 -0.200000003 -0.05113048479
v 0.06690577418 -0.200000003 -0.05059106275
l 981 982
v 0.07038104534 -0.200000003 -0.05166082084
v 0.06863486022 -0.200000003 -0.05113048479
l 983 984
v 0.07214464247 -0.200000003 -0.05218206719
v 0.07038104534 -0.200000003 -0.05166082084
l 985 986
v 0.07392597198 -0.200000003 -0.05269419402
v 0.07214464247 -0.200000003 -0.05218206719
l 987 988
v 0.07572538406 -0.200000003 -0.05319718644
v 0.07392597198 -0.200000003 -0.05269419402
l 989 990
v 0.07754321396 -0.200000003 -0.05369102582
v 0.07572538406 -0.200000003 -0.05319718644
l 991 992
v 0.07937984914 -0.200000003 -0.05417569354
v 0.07754321396 -0.200000003 -0.05369102582
l 993 994
v 0.08123365045 -0.200000003 -0.0546506457
v 0.07937984914 -0.200000003 -0.05417569354
l 995 996
v 0.08309911937 -0.200000003 -0.05511445925
v 0.08123365045 -0.200000003 -0.0546506457
l 997 998
v 0.08497622609 -0.200000003 -0.05556707829
v 0.08309911937 -0.200000003 -0.05511445925
l 999 1000
v 0.0868588835 -0.200000003 -0.05600704253
v 0.08497622609 -0.200000003 -0.05556707829
l 1001 1002
v 0.08875938505 -0.200000003 -0.05643716082
v 0.0868588835 -0.200000003 -0.05600704253
l 1003 1004
v 0.09067167342 -0.200000003 -0.0568559207
v 0.08875938505 -0.200000003 -0.05643716082
l 1005 1006
v 0.09259577096 -0.200000003 -0.05726327375
v 0.09067167342 -0.200000003 -0.0568559207
l 1007 1008
v 0.09453170747 -0.200000003 -0.05765915662
v 0.09259577096 -0.200000003 -0.05726327375
l 1009 1010
v 0.09647499025 -0.200000003 -0.05804262683
v 0.09453170747 -0.200000003 -0.05765915662
l 1011 1012
v 0.09842093289 -0.200000003 -0.05841280892
v 0.09647499025 -0.200000003 -0.05804262683
l 1013 1014
v 0.1003693864 -0.200000003 -0.05876969546
v 0.09842093289 -0.200000003 -0.05841280892
l 1015 1016
v 0.1023202166 -0.200000003 -0.05911324546
v 0.1003693864 -0.200000003 -0.05876969546
l 1017 1018
v 0.1042732745 -0.200000003 -0.05944344774
v 0.1023202166 -0.200000003 -0.05911324546
l 1019 1020
v 0.1062284186 -0.200000003 -0.0597602725
v 0.1042732745 -0.200000003 -0.05944344774
l 1021 1022
v 0.1081855223 -0.200000003 -0.06006370485
v 0.1062284186 -0.200000003 -0.0597602725
l 1023 1024
v 0.1101445258 -0.200000003 -0.06035373732
v 0.1081855223 -0.200000003 -0.06006370485
l 1025 1026
v 0.1121077761 -0.200000003 -0.06063069031
v 0.1101445258 -0.200000003 -0.06035373732
l 1027 1028
v 0.1140774414 -0.200000003 -0.06089481339
v 0.1121077761 -0.200000003 -0.06063069031
l 1029 1030
v 0.1160534397 -0.200000003 -0.06114605442
v 0.1140774414 -0.200000003 -0.06089481339
l 1031 1032
v 0.1180356741 -0.200000003 -0.06138437614
v 0.1160534397 -0.200000003 -0.06114605442
l 1033 1034
v 0.1200240552 -0.200000003 -0.06160973385
v 0.1180356741 -0.200000003 -0.06138437614
l 1035 1036
v 0.1220184863 -0.200000003 -0.06182208657
v 0.1200240552 -0.200000003 -0.06160973385
l 1037 1038
v 0.1240188703 -0.200000003 -0.06202139333
v 0.1220184863 -0.200000003 -0.06182208657
l 1039 1040
v 0.1260251254 -0.200000003 -0.06220760569
v 0.1240188703 -0.200000003 -0.06202139333
l 1041 1042
v 0.1280371249 -0.200000003 -0.06238069385
v 0.1260251254 -0.200000003 -0.06220760569
l 1043 1044
v 0.1300548166 -0.200000003 -0.06254062057
v 0.1280371249 -0.200000003 -0.06238069385
l 1045 1046
v 0.1320781112 -0.200000003 -0.0626873374
v 0.1300548166 -0.200000003 -0.06254062057
l 1047 1048
v 0.1341069043 -0.200000003 -0.062820822
v 0.1320781112 -0.200000003 -0.0626873374
l 1049 1050
v 0.1361411214 -0.200000003 -0.06294102222
v 0.1341069043 -0.200000003 -0.062820822
l 1051 1052
v 0.1381806731 -0.200000003 -0.0630479157
v 0.1361411214 -0.200000003 -0.06294102222
l 1053 1054
v 0.1402254552 -0.200000003 -0.06314145774
v 0.1381806731 -0.200000003 -0.0630479157
l 1055 1056
v 0.1422753781 -0.200000003 -0.06322161853
v 0.1402254552 -0.200000003 -0.06314145774
l 1057 1058
v 0.1443302035 -0.200000003 -0.06328836083
v 0.1422753781 -0.200000003 -0.06322161853
l 1059 1060
v 0.1463891864 -0.200000003 -0.06334163249
v 0.1443302035 -0.200000003 -0.06328836083
l 1061 1062
v 0.1484522074 -0.200000003 -0.06338142604
v 0.1463891864 -0.200000003 -0.06334163249
l 1063 1064
v 0.1505191475 -0.200000003 -0.06340768933
v 0.1484522074 -0.200000003 -0.06338142604
l 1065 1066
v 0.1525899023 -0.200000003 -0.06342041492
v 0.1505191475 -0.200000003 -0.06340768933
l 1067 1068
v 0.1546643823 -0.200000003 -0.06341957301
v 0.1525899023 -0.200000003 -0.06342041492
l 1069 1070
v 0.1567424536 -0.200000003 -0.06340514123
v 0.1546643823 -0.200000003 -0.06341957301
l 1071 1072
v 0.1588240415 -0.200000003 -0.06337709725
v 0.1567424536 -0.200000003 -0.06340514123
l 1073 1074
v 0.1609090716 -0.200000003 -0.06333541125
v 0.1588240415 -0.200000003 -0.06337709725
l 1075 1076
v 0.1629985124 -0.200000003 -0.06328003854
v 0.1609090716 -0.200000003 -0.06333541125
l 1077 1078
v 0.165092662 -0.200000003 -0.06321092695
v 0.1629985124 -0.200000003 -0.06328003854
l 1079 1080
v 0.1671914011 -0.200000003 -0.06312805414
v 0.165092662 -0.200000003 -0.06321092695
l 1081 1082
v 0.1692946851 -0.200000003 -0.06303136796
v 0.1671914011 -0.200000003 -0.06312805414
l 1083 1084
v 0.1714024097 -0.200000003 -0.0629208684
v 0.1692946851 -0.200000003 -0.06303136796
l 1085 1086
v 0.1735144854 -0.200000003 -0.06279650331
v 0.1714024097 -0.200000003 -0.0629208684
l 1087 1088
v 0.1756308526 -0.200000003 -0.06265825778
v 0.1735144854 -0.200000003 -0.06279650331
l 1089 1090
v 0.177751407 -0.200000003 -0.06250610203
v 0.1756308526 -0.200000003 -0.06265825778
l 1091 1092
v 0.1798789203 -0.200000003 -0.06233977526
v 0.177751407 -0.200000003 -0.06250610203
l 1093 1094
v 0.1820166856 -0.200000003 -0.06215891987
v 0.1798789203 -0.200000003 -0.06233977526
l 1095 1096
v 0.184164837 -0.200000003 -0.06196343899
v 0.1820166856 -0.200000003 -0.06215891987
l 1097 1098
v 0.1863234937 -0.200000003 -0.06175325066
v 0.184164837 -0.200000003 -0.06196343899
l 1099 1100
v 0.1884927899 -0.200000003 -0.0615282543
v 0.1863234937 -0.200000003 -0.06175325066
l 1101 1102
v 0.1906728446 -0.200000003 -0.06128837168
v 0.1884927899 -0.200000003 -0.0615282543
l 1103 1104
v 0.1928637773 -0.200000003 -0.06103350222
v 0.1906728446 -0.200000003 -0.06128837168
l 1105 1106
v 0.1950562447 -0.200000003 -0.06076474488
v 0.1928637773 -0.200000003 -0.06103350222
l 1107 1108
v 0.1972763091 -0.200000003 -0.06047875434
v 0.1950562447 -0.200000003 -0.06076474488
l 1109 1110
v 0.1995382607 -0.200000003 -0.06017322093
v 0.1972763091 -0.200000003 -0.06047875434
l 1111 1112
v 0.2018460333 -0.200000003 -0.0598472096
v 0.1995382607 -0.200000003 -0.06017322093
l 1113 1114
v 0.204203859 -0.200000003 -0.05949979275
v 0.2018460333 -0.200000003 -0.0598472096
l 1115 1116
v 0.2066167146 -0.200000003 -0.0591298677
v 0.204203859 -0.200000003 -0.05949979275
l 1117 1118
v 0.2090905011 -0.200000003 -0.0587361306
v 0.2066167146 -0.200000003 -0.0591298677
l 1119 1120
v 0.2116322815 -0.200000003 -0.05831702426
v 0.2090905011 -0.200000003 -0.0587361306
l 1121 1122
v 0.2142492086 -0.200000003 -0.05787090212
v 0.2116322815 -0.200000003 -0.05831702426
l 1123 1124
v 0.2169220001 -0.200000003 -0.05740076676
v 0.2142492086 -0.200000003 -0.05787090212
l 1125 1126
v 0.2196462303 -0.200000003 -0.05690723285
v 0.2169220001 -0.200000003 -0.05740076676
l 1127 1128
v 0.222426489 -0.200000003 -0.056389153
v 0.2196462303 -0.200000003 -0.05690723285
l 1129 1130
v 0.2252681255 -0.200000003 -0.05584517866
v 0.222426489 -0.200000003 -0.056389153
l 1131 1132
v 0.2281773984 -0.200000003 -0.05527373776
v 0.2252681255 -0.200000003 -0.05584517866
l 1133 1134
v 0.2311616242 -0.200000003 -0.05467298627
v 0.2281773984 -0.200000003 -0.05527373776
l 1135 1136
v 0.2342090607 -0.200000003 -0.05404497683
v 0.2311616242 -0.200000003 -0.05467298627
l 1137 1138
v 0.2372941822 -0.200000003 -0.05339492485
v 0.2342090607 -0.200000003 -0.05404497683
l 1139 1140
v 0.2404191643 -0.200000003 -0.05272222683
v 0.2372941822 -0.200000003 -0.05339492485
l 1141 1142
v 0.2435863763 -0.200000003 -0.05202615634
v 0.2404191643 -0.200000003 -0.05272222683
l 1143 1144
v 0.2467984259 -0.200000003 -0.05130591989
v 0.2435863763 -0.200000003 -0.05202615634
l 1145 1146
v 0.2500582635 -0.200000003 -0.05056061596
v 0.2467984259 -0.200000003 -0.05130591989
l 1147 1148
v 0.2533707619 -0.200000003 -0.04978887737
v 0.2500582635 -0.200000003 -0.05056061596
l 1149 1150
v 0.2567408383 -0.200000003 -0.04898928106
v 0.2533707619 -0.200000003 -0.04978887737
l 1151 1152
v 0.2601731122 -0.200000003 -0.04816042259
v 0.2567408383 -0.200000003 -0.04898928106
l 1153 1154
v 0.2636729181 -0.200000003 -0.04730070382
v 0.2601731122 -0.200000003 -0.04816042259
l 1155 1156
v 0.2672463059 -0.200000003 -0.04640831053
v 0.2636729181 -0.200000003 -0.04730070382
l 1157 1158
v 0.2708833218 -0.200000003 -0.04548547417
v 0.2672463059 -0.200000003 -0.04640831053
l 1159 1160
v 0.2745674253 -0.200000003 -0.0445362702
v 0.2708833218 -0.200000003 -0.04548547417
l 1161 1162
v 0.2783014774 -0.200000003 -0.04355977848
v 0.2745674253 -0.200000003 -0.0445362702
l 1163 1164
v 0.2820885777 -0.200000003 -0.0425549522
v 0.2783014774 -0.200000003 -0.04355977848
l 1165 1166
v 0.2859307528 -0.200000003 -0.04152105004
v 0.2820885777 -0.200000003 -0.0425549522
l 1167 1168
v 0.2897916436 -0.200000003 -0.04046781734
v 0.2859307528 -0.200000003 -0.04152105004
l 1169 1170
v 0.2936566174 -0.200000003 -0.03939935565
v 0.2897916436 -0.200000003 -0.04046781734
l 1171 1172
v 0.2975257337 -0.200000003 -0.0383156538
v 0.2936566174 -0.200000003 -0.03939935565
l 1173 1174
v 0.3013989329 -0.200000003 -0.03721668944
v 0.2975257337 -0.200000003 -0.0383156538
l 1175 1176
v 0.3052737415 -0.200000003 -0.03610315546
v 0.3013989329 -0.200000003 -0.03721668944
l 1177 1178
v 0.3091453314 -0.200000003 -0.03497643024
v 0.3052737415 -0.200000003 -0.03610315546
l 1179 1180
v 0.3130137026 -0.200000003 -0.03383654356
v 0.3091453314 -0.200000003 -0.03497643024
l 1181 1182
v 0.3168788254 -0.200000003 -0.03268350288
v 0.3130137026 -0.200000003 -0.03383654356
l 1183 1184
v 0.3206923604 -0.200000003 -0.03153198212
v 0.3168788254 -0.200000003 -0.03268350288
l 1185 1186
v 0.3244089186 -0.200000003 -0.03039639443
v 0.3206923604 -0.200000003 -0.03153198212
l 1187 1188
v 0.3280367255 -0.200000003 -0.02927468903
v 0.3244089186 -0.200000003 -0.03039639443
l 1189 1190
v 0.3315832615 -0.200000003 -0.02816480398
v 0.3280367255 -0.200000003 -0.02927468903
l 1191 1192
v 0.3350327015 -0.200000003 -0.02707207575
v 0.3315832615 -0.200000003 -0.02816480398
l 1193 1194
v 0.3383398354 -0.200000003 -0.02601157129
v 0.3350327015 -0.200000003 -0.02707207575
l 1195 1196
v 0.3415223956 -0.200000003 -0.02497826889
v 0.3383398354 -0.200000003 -0.02601157129
l 1197 1198
v 0.3445959687 -0.200000003 -0.02396747656
v 0.3415223956 -0.200000003 -0.02497826889
l 1199 1200
v 0.3475738168 -0.200000003 -0.02297514118
v 0.3445959687 -0.200000003 -0.02396747656
l 1201 1202
v 0.3503927886 -0.200000003 -0.02202309854
v 0.3475738168 -0.200000003 -0.02297514118
l 1203 1204
v 0.3530580699 -0.200000003 -0.02111072838
v 0.3503927886 -0.200000003 -0.02202309854
l 1205 1206
v 0.3555964828 -0.200000003 -0.02022938244
v 0.3530580699 -0.200000003 -0.02111072838
l 1207 1208
v 0.3580274284 -0.200000003 -0.01937269978
v 0.3555964828 -0.200000003 -0.02022938244
l 1209 1210
v 0.3603685796 -0.200000003 -0.01853478514
v 0.3580274284 -0.200000003 -0.01937269978
l 1211 1212
v 0.3624867201 -0.200000003 -0.01776486076
v 0.3603685796 -0.200000003 -0.01853478514
l 1213 1214
v 0.3644031584 -0.200000003 -0.0170574151
v 0.3624867201 -0.200000003 -0.01776486076
l 1215 1216
v 0.3661736846 -0.200000003 -0.01639251783
v 0.3644031584 -0.200000003 -0.0170574151
l 1217 1218
v 0.3678316176 -0.200000003 -0.01575802267
v 0.3661736846 -0.200000003 -0.01639251783
l 1219 1220
v 0.3693987727 -0.200000003 -0.01514596213
v 0.3678316176 -0.200000003 -0.01575802267
l 1221 1222
v 0.3708903193 -0.200000003 -0.01455078647
v 0.3693987727 -0.200000003 -0.01514596213
l 1223 1224
v 0.3723193109 -0.200000003 -0.0139676556
v 0.3708903193 -0.200000003 -0.01455078647
l 1225 1226
v 0.3736982942 -0.200000003 -0.01339172851
v 0.3723193109 -0.200000003 -0.0139676556
l 1227 1228
v 0.3750323355 -0.200000003 -0.01282110158
v 0.3736982942 -0.200000003 -0.01339172851
l 1229 1230
v 0.3763255477 -0.200000003 -0.01225435361
v 0.3750323355 -0.200000003 -0.01282110158
l 1231 1232
v 0.3775813282 -0.200000003 -0.01169029903
v 0.3763255477 -0.200000003 -0.01225435361
l 1233 1234
v 0.3788024485 -0.200000003 -0.01112793852
v 0.3775813282 -0.200000003 -0.01169029903
l 1235 1236
v 0.3799912632 -0.200000003 -0.01056650374
v 0.3788024485 -0.200000003 -0.01112793852
l 1237 1238
v 0.3811624944 -0.200000003 -0.009999057278
v 0.3799912632 -0.200000003 -0.01056650374
l 1239 1240
v 0.3823708594 -0.200000003 -0.009397874586
v 0.3811624944 -0.200000003 -0.009999057278
l 1241 1242
v 0.3835058212 -0.200000003 -0.008818907663
v 0.3823708594 -0.200000003 -0.009397874586
l 1243 1244
v 0.3846925497 -0.200000003 -0.00819988735
v 0.3835058212 -0.200000003 -0.008818907663
l 1245 1246
v 0.3859437704 -0.200000003 -0.007533519994
v 0.3846925497 -0.200000003 -0.00819988735
l 1247 1248
v 0.3872781396 -0.200000003 -0.006809152663
v 0.3859437704 -0.200000003 -0.007533519994
l 1249 1250
v 0.3887145221 -0.200000003 -0.006015811581
v 0.3872781396 -0.200000003 -0.006809152663
l 1251 1252
v 0.3902750313 -0.200000003 -0.005141788628
v 0.3887145221 -0.200000003 -0.006015811581
l 1253 1254
v 0.392708689 -0.200000003 -0.003772657132
v 0.3902750313 -0.200000003 -0.005141788628
l 1255 1256
v 0.3942481279 -0.200000003 -0.002916218713
v 0.392708689 -0.200000003 -0.003772657132
l 1257 1258
v 0.3952694535 -0.200000003 -0.00235766056
v 0.3942481279 -0.200000003 -0.002916218713
l 1259 1260
v 0.3961834908 -0.200000003 -0.001868224819
v 0.3952694535 -0.200000003 -0.00235766056
l 1261 1262
v 0.3970254958 -0.200000003 -0.001428963151
v 0.3961834908 -0.200000003 -0.001868224819
l 1263 1264
v 0.3978151083 -0.200000003 -0.00102927594
v 0.3970254958 -0.200000003 -0.001428963151
l 1265 1266
v 0.3985647857 -0.200000003 -0.0006624969537
v 0.3978151083 -0.200000003 -0.00102927594
l 1267 1268
v 0.3992819786 -0.200000003 -0.0003245156258
v 0.3985647857 -0.200000003 -0.0006624969537
l 1269 1270
v 0.400000006 -0.200000003 -1.568231878e-09
v 0.3992819786 -0.200000003 -0.0003245156258
l 1271 1272
v 0.400000006 0.6000000238 -1.56823099e-09
v 0.400000006 -0.200000003 -1.568231878e-09
l 1273 1274
v 0.3990853131 -0.200000003 -0.0002644782362
v 0.400000006 -0.200000003 -1.568231878e-09
l 1275 1276
v 0.3980402052 -0.200000003 -0.0005545325112
v 0.3990853131 -0.200000003 -0.0002644782362
l 1277 1278
v 0.39693591 -0.200000003 -0.0008484020946
v 0.3980402052 -0.200000003 -0.0005545325112
l 1279 1280
v 0.3957585394 -0.200000003 -0.001149158459
v 0.39693591 -0.200000003 -0.0008484020946
l 1281 1282
v 0.394487381 -0.200000003 -0.001461373176
v 0.3957585394 -0.200000003 -0.001149158459
l 1283 1284
v 0.3930842876 -0.200000003 -0.001793580945
v 0.394487381 -0.200000003 -0.001461373176
l 1285 1286
v 0.3915145099 -0.200000003 -0.002152832923
v 0.3930842876 -0.200000003 -0.001793580945
l 1287 1288
v 0.389842689 -0.200000003 -0.002522998489
v 0.3915145099 -0.200000003 -0.002152832923
l 1289 1290
v 0.3880414665 -0.200000003 -0.002909416799
v 0.389842689 -0.200000003 -0.002522998489
l 1291 1292
v 0.3860599995 -0.200000003 -0.003322172677
v 0.3880414665 -0.200000003 -0.002909416799
l 1293 1294
v 0.3835791945 -0.200000003 -0.003824397922
v 0.3860599995 -0.200000003 -0.003322172677
l 1295 1296
v 0.3812345564 -0.200000003 -0.004285970237
v 0.3835791945 -0.200000003 -0.003824397922
l 1297 1298
v 0.3787713349 -0.200000003 -0.004758486059
v 0.3812345564 -0.200000003 -0.004285970237
l 1299 1300
v 0.3761619031 -0.200000003 -0.005246678833
v 0.3787713349 -0.200000003 -0.004758486059
l 1301 1302
v 0.3731312454 -0.200000003 -0.005799553357
v 0.3761619031 -0.200000003 -0.005246678833
l 1303 1304
v 0.3699947894 -0.200000003 -0.006356956437
v 0.3731312454 -0.200000003 -0.005799553357
l 1305 1306
v 0.3667370081 -0.200000003 -0.006921048276
v 0.3699947894 -0.200000003 -0.006356956437
l 1307 1308
v 0.3633873463 -0.200000003 -0.007486381568
v 0.3667370081 -0.200000003 -0.006921048276
l 1309 1310
v 0.3600450158 -0.200000003 -0.008036615327
v 0.3633873463 -0.200000003 -0.007486381568
l 1311 1312
v 0.3567101955 -0.200000003 -0.008572019637
v 0.3600450158 -0.200000003 -0.008036615327
l 1313 1314
v 0.3533827066 -0.200000003 -0.009092634544
v 0.3567101955 -0.200000003 -0.008572019637
l 1315 1316
v 0.3500587046 -0.200000003 -0.009599094279
v 0.3533827066 -0.200000003 -0.009092634544
l 1317 1318
v 0.3467169404 -0.200000003 -0.01009449176
v 0.3500587046 -0.200000003 -0.009599094279
l 1319 1320
v 0.343347162 -0.200000003 -0.01058013178
v 0.3467169404 -0.200000003 -0.01009449176
l 1321 1322
v 0.3399486244 -0.200000003 -0.01105600502
v 0.343347162 -0.200000003 -0.01058013178
l 1323 1324
v 0.3365205228 -0.200000003 -0.01152210962
v 0.3399486244 -0.200000003 -0.01105600502
l 1325 1326
v 0.3330623507 -0.200000003 -0.01197839156
v 0.3365205228 -0.200000003 -0.01152210962
l 1327 1328
v 0.3295988739 -0.200000003 -0.01242163032
v 0.3330623507 -0.200000003 -0.01197839156
l 1329 1330
v 0.3261412084 -0.200000003 -0.01285053603
v 0.3295988739 -0.200000003 -0.01242163032
l 1331 1332
v 0.3226895034 -0.200000003 -0.01326515246
v 0.3261412084 -0.200000003 -0.01285053603
l 1333 1334
v 0.3192436993 -0.200000003 -0.01366550848
v 0.3226895034 -0.200000003 -0.01326515246
l 1335 1336
v 0.3158037961 -0.200000003 -0.01405163296
v 0.3192436993 -0.200000003 -0.01366550848
l 1337 1338
v 0.3123767078 -0.200000003 -0.01442281809
v 0.3158037961 -0.200000003 -0.01405163296
l 1339 1340
v 0.3089784086 -0.200000003 -0.01477753278
v 0.3123767078 -0.200000003 -0.01442281809
l 1341 1342
v 0.305608511 -0.200000003 -0.01511601359
v 0.3089784086 -0.200000003 -0.01477753278
l 1343 1344
v 0.3022660017 -0.200000003 -0.01543846074
v 0.305608511 -0.200000003 -0.01511601359
l 1345 1346
v 0.2989501059 -0.200000003 -0.01574506611
v 0.3022660017 -0.200000003 -0.01543846074
l 1347 1348
v 0.2956599891 -0.200000003 -0.01603600755
v 0.2989501059 -0.200000003 -0.01574506611
l 1349 1350
v 0.2923946381 -0.200000003 -0.01631147042
v 0.2956599891 -0.200000003 -0.01603600755
l 1351 1352
v 0.2891335189 -0.200000003 -0.01657316647
v 0.2923946381 -0.200000003 -0.01631147042
l 1353 1354
v 0.2858695388 -0.200000003 -0.01682152227
v 0.2891335189 -0.200000003 -0.01657316647
l 1355 1356
v 0.2826028168 -0.200000003 -0.01705649495
v 0.2858695388 -0.200000003 -0.01682152227
l 1357 1358
v 0.2793334126 -0.200000003 -0.01727807149
v 0.2826028168 -0.200000003 -0.01705649495
l 1359 1360
v 0.2760614157 -0.200000003 -0.01748624071
v 0.2793334126 -0.200000003 -0.01727807149
l 1361 1362
v 0.2727869153 -0.200000003 -0.01768098958
v 0.2760614157 -0.200000003 -0.01748624071
l 1363 1364
v 0.2695100009 -0.200000003 -0.01786230505
v 0.2727869153 -0.200000003 -0.01768098958
l 1365 1366
v 0.2662206292 -0.200000003 -0.01803067513
v 0.2695100009 -0.200000003 -0.01786230505
l 1367 1368
v 0.2629017234 -0.200000003 -0.0181867741
v 0.2662206292 -0.200000003 -0.01803067513
l 1369 1370
v 0.2595523596 -0.200000003 -0.01833049022
v 0.2629017234 -0.200000003 -0.0181867741
l 1371 1372
v 0.2561714649 -0.200000003 -0.01846174151
v 0.2595523596 -0.200000003 -0.01833049022
l 1373 1374
v 0.2527579069 -0.200000003 -0.01858042926
v 0.2561714649 -0.200000003 -0.01846174151
l 1375 1376
v 0.2493105531 -0.200000003 -0.01868646406
v 0.2527579069 -0.200000003 -0.01858042926
l 1377 1378
v 0.2458281368 -0.200000003 -0.01877973787
v 0.2493105531 -0.200000003 -0.01868646406
l 1379 1380
v 0.2423178405 -0.200000003 -0.01885996386
v 0.2458281368 -0.200000003 -0.01877973787
l 1381 1382
v 0.2388021797 -0.200000003 -0.01892667823
v 0.2423178405 -0.200000003 -0.01885996386
l 1383 1384
v 0.2352813631 -0.200000003 -0.01897991076
v 0.2388021797 -0.200000003 -0.01892667823
l 1385 1386
v 0.2317554653 -0.200000003 -0.01901964098
v 0.2352813631 -0.200000003 -0.01897991076
l 1387 1388
v 0.2282244861 -0.200000003 -0.0190458484
v 0.2317554653 -0.200000003 -0.01901964098
l 1389 1390
v 0.2246884853 -0.200000003 -0.01905851439
v 0.2282244861 -0.200000003 -0.0190458484
l 1391 1392
v 0.2211475521 -0.200000003 -0.01905761845
v 0.2246884853 -0.200000003 -0.01905851439
l 1393 1394
v 0.217616871 -0.200000003 -0.01904323511
v 0.2211475521 -0.200000003 -0.01905761845
l 1395 1396
v 0.2141155005 -0.200000003 -0.01901567914
v 0.217616871 -0.200000003 -0.01904323511
l 1397 1398
v 0.2106426358 -0.200000003 -0.01897512004
v 0.2141155005 -0.200000003 -0.01901567914
l 1399 1400
v 0.2071974725 -0.200000003 -0.01892165281
v 0.2106426358 -0.200000003 -0.01897512004
l 1401 1402
v 0.2037792057 -0.200000003 -0.01885535941
v 0.2071974725 -0.200000003 -0.01892165281
l 1403 1404
v 0.2003872246 -0.200000003 -0.01877632923
v 0.2037792057 -0.200000003 -0.01885535941
l 1405 1406
v 0.1969973296 -0.200000003 -0.01868395321
v 0.2003872246 -0.200000003 -0.01877632923
l 1407 1408
v 0.193660602 -0.200000003 -0.01857974753
v 0.1969973296 -0.200000003 -0.01868395321
l 1409 1410
v 0.1903952062 -0.200000003 -0.01846481673
v 0.193660602 -0.200000003 -0.01857974753
l 1411 1412
v 0.1872006208 -0.200000003 -0.01833964325
v 0.1903952062 -0.200000003 -0.01846481673
l 1413 1414
v 0.1840713173 -0.200000003 -0.01820426248
v 0.1872006208 -0.200000003 -0.01833964325
l 1415 1416
v 0.1810025275 -0.200000003 -0.01805868931
v 0.1840713173 -0.200000003 -0.01820426248
l 1417 1418
v 0.1779900342 -0.200000003 -0.01790293865
v 0.1810025275 -0.200000003 -0.01805868931
l 1419 1420
v 0.1750301421 -0.200000003 -0.01773701608
v 0.1779900342 -0.200000003 -0.01790293865
l 1421 1422
v 0.172119543 -0.200000003 -0.01756093092
v 0.1750301421 -0.200000003 -0.01773701608
l 1423 1424
v 0.1692554355 -0.200000003 -0.0173747018
v 0.172119543 -0.200000003 -0.01756093092
l 1425 1426
v 0.1664202213 -0.200000003 -0.01717726141
v 0.1692554355 -0.200000003 -0.0173747018
l 1427 1428
v 0.163598001 -0.200000003 -0.01696739718
v 0.1664202213 -0.200000003 -0.01717726141
l 1429 1430
v 0.1607886404 -0.200000003 -0.01674507745
v 0.163598001 -0.200000003 -0.01696739718
l 1431 1432
v 0.1579920799 -0.200000003 -0.01651035063
v 0.1607886404 -0.200000003 -0.01674507745
l 1433 1434
v 0.1552082151 -0.200000003 -0.0162632633
v 0.1579920799 -0.200000003 -0.01651035063
l 1435 1436
v 0.1524369568 -0.200000003 -0.01600386202
v 0.1552082151 -0.200000003 -0.0162632633
l 1437 1438
v 0.1496782601 -0.200000003 -0.01573219523
v 0.1524369568 -0.200000003 -0.01600386202
l 1439 1440
v 0.1469320208 -0.200000003 -0.01544830762
v 0.1496782601 -0.200000003 -0.01573219523
l 1441 1442
v 0.1441981941 -0.200000003 -0.01515224855
v 0.1469320208 -0.200000003 -0.01544830762
l 1443 1444
v 0.1414647996 -0.200000003 -0.01484268438
v 0.1441981941 -0.200000003 -0.01515224855
l 1445 1446
v 0.1387026906 -0.200000003 -0.01451601088
v 0.1414647996 -0.200000003 -0.01484268438
l 1447 1448
v 0.1359095275 -0.200000003 -0.01417168323
v 0.1387026906 -0.200000003 -0.01451601088
l 1449 1450
v 0.1330837756 -0.200000003 -0.01380933821
v 0.1359095275 -0.200000003 -0.01417168323
l 1451 1452
v 0.1302238107 -0.200000003 -0.01342858002
v 0.1330837756 -0.200000003 -0.01380933821
l 1453 1454
v 0.1273278147 -0.200000003 -0.01302897744
v 0.1302238107 -0.200000003 -0.01342858002
l 1455 1456
v 0.1243938208 -0.200000003 -0.01261005923
v 0.1273278147 -0.200000003 -0.01302897744
l 1457 1458
v 0.1214196756 -0.200000003 -0.01217130851
v 0.1243938208 -0.200000003 -0.01261005923
l 1459 1460
v 0.1184047163 -0.200000003 -0.01171241794
v 0.1214196756 -0.200000003 -0.01217130851
l 1461 1462
v 0.1153611094 -0.200000003 -0.01123513561
v 0.1184047163 -0.200000003 -0.01171241794
l 1463 1464
v 0.1122896373 -0.200000003 -0.01073948666
v 0.1153611094 -0.200000003 -0.01123513561
l 1465 1466
v 0.1091891602 -0.200000003 -0.01022514049
v 0.1122896373 -0.200000003 -0.01073948666
l 1467 1468
v 0.1060584486 -0.200000003 -0.009691744111
v 0.1091891602 -0.200000003 -0.01022514049
l 1469 1470
v 0.1028961837 -0.200000003 -0.009138920344
v 0.1060584486 -0.200000003 -0.009691744111
l 1471 1472
v 0.09970106184 -0.200000003 -0.00856627617
v 0.1028961837 -0.200000003 -0.009138920344
l 1473 1474
v 0.09649902582 -0.200000003 -0.007978476584
v 0.09970106184 -0.200000003 -0.00856627617
l 1475 1476
v 0.09318657964 -0.200000003 -0.00735606486
v 0.09649902582 -0.200000003 -0.007978476584
l 1477 1478
v 0.08978229016 -0.200000003 -0.006701776292
v 0.09318657964 -0.200000003 -0.00735606486
l 1479 1480
v 0.08627427369 -0.200000003 -0.006012837403
v 0.08978229016 -0.200000003 -0.006701776292
l 1481 1482
v 0.08264771849 -0.200000003 -0.00528579345
v 0.08627427369 -0.200000003 -0.006012837403
l 1483 1484
v 0.07888840139 -0.200000003 -0.004517205525
v 0.08264771849 -0.200000003 -0.00528579345
l 1485 1486
v 0.07534567267 -0.200000003 -0.003779910272
v 0.07888840139 -0.200000003 -0.004517205525
l 1487 1488
v 0.0716214776 -0.200000003 -0.002993116155
v 0.07534567267 -0.200000003 -0.003779910272
l 1489 1490
v 0.06609237939 -0.200000003 -0.001812578179
v 0.0716214776 -0.200000003 -0.002993116155
l 1491 1492
v 0.06035310403 -0.200000003 -0.0005871524918
v 0.06609237939 -0.200000003 -0.001812578179
l 1493 1494
v 0.05639021471 -0.200000003 0.0002494404034
v 0.06035310403 -0.200000003 -0.0005871524918
l 1495 1496
v 0.05355080217 -0.200000003 0.0008393303142
v 0.05639021471 -0.200000003 0.0002494404034
l 1497 1498
v 0.05097031966 -0.200000003 0.001365326345
v 0.05355080217 -0.200000003 0.0008393303142
l 1499 1500
v 0.0485823974 -0.200000003 0.00184123416
v 0.05097031966 -0.200000003 0.001365326345
l 1501 1502
v 0.04621250927 -0.200000003 0.002301240573
v 0.0485823974 -0.200000003 0.00184123416
l 1503 1504
v 0.04408679903 -0.200000003 0.002701835474
v 0.04621250927 -0.200000003 0.002301240573
l 1505 1506
v 0.04206531867 -0.200000003 0.003070936073
v 0.04408679903 -0.200000003 0.002701835474
l 1507 1508
v 0.04013026133 -0.200000003 0.00341222831
v 0.04206531867 -0.200000003 0.003070936073
l 1509 1510
v 0.03826834634 -0.200000003 0.003728410229
v 0.04013026133 -0.200000003 0.00341222831
l 1511 1512
v 0.03646938875 -0.200000003 0.004021545872
v 0.03826834634 -0.200000003 0.003728410229
l 1513 1514
v 0.03472538292 -0.200000003 0.004293258302
v 0.03646938875 -0.200000003 0.004021545872
l 1515 1516
v 0.03302937374 -0.200000003 0.004544923548
v 0.03472538292 -0.200000003 0.004293258302
l 1517 1518
v 0.03140229359 -0.200000003 0.004774009343
v 0.03302937374 -0.200000003 0.004544923548
l 1519 1520
v 0.02987418696 -0.200000003 0.004977495875
v 0.03140229359 -0.200000003 0.004774009343
l 1521 1522
v 0.02842574194 -0.200000003 0.005158807151
v 0.02987418696 -0.200000003 0.004977495875
l 1523 1524
v 0.02704295143 -0.200000003 0.005320074502
v 0.02842574194 -0.200000003 0.005158807151
l 1525 1526
v 0.02571558394 -0.200000003 0.005462852772
v 0.02704295143 -0.200000003 0.005320074502
l 1527 1528
v 0.02443614602 -0.200000003 0.005588296801
v 0.02571558394 -0.200000003 0.005462852772
l 1529 1530
v 0.02318783291 -0.200000003 0.005698229652
v 0.02443614602 -0.200000003 0.005588296801
l 1531 1532
v 0.02245861664 -0.200000003 0.005756391212
v 0.02318783291 -0.200000003 0.005698229652
l 1533 1534
v 0.0212791767 -0.200000003 0.005840461701
v 0.02245861664 -0.200000003 0.005756391212
l 1535 1536
v 0.02014293335 -0.200000003 0.00590914255
v 0.0212791767 -0.200000003 0.005840461701
l 1537 1538
v 0.0190455243 -0.200000003 0.005963246804
v 0.02014293335 -0.200000003 0.00590914255
l 1539 1540
v 0.01798211783 -0.200000003 0.006003342103
v 0.0190455243 -0.200000003 0.005963246804
l 1541 1542
v 0.01694880985 -0.200000003 0.006029871292
v 0.01798211783 -0.200000003 0.006003342103
l 1543 1544
v 0.01594238169 -0.200000003 0.006043194328
v 0.01694880985 -0.200000003 0.006029871292
l 1545 1546
v 0.01496014278 -0.200000003 0.006043605041
v 0.01594238169 -0.200000003 0.006043194328
l 1547 1548
v 0.01399981603 -0.200000003 0.00603134837
v 0.01496014278 -0.200000003 0.006043605041
l 1549 1550
v 0.01305910293 -0.200000003 0.006006615236
v 0.01399981603 -0.200000003 0.00603134837
l 1551 1552
v 0.01219263487 -0.200000003 0.005972194951
v 0.01305910293 -0.200000003 0.006006615236
l 1553 1554
v 0.01139722206 -0.200000003 0.005929989275
v 0.01219263487 -0.200000003 0.005972194951
l 1555 1556
v 0.01065573841 -0.200000003 0.005879724398
v 0.01139722206 -0.200000003 0.005929989275
l 1557 1558
v 0.009955799207 -0.200000003 0.005820893683
v 0.01065573841 -0.200000003 0.005879724398
l 1559 1560
v 0.0093326848 -0.200000003 0.005757887382
v 0.009955799207 -0.200000003 0.005820893683
l 1561 1562
v 0.008698485792 -0.200000003 0.005682213232
v 0.0093326848 -0.200000003 0.005757887382
l 1563 1564
v 0.008090794086 -0.200000003 0.005597589072
v 0.008698485792 -0.200000003 0.005682213232
l 1565 1566
v 0.007506470196 -0.200000003 0.005503925029
v 0.008090794086 -0.200000003 0.005597589072
l 1567 1568
v 0.00694397511 -0.200000003 0.005401334725
v 0.007506470196 -0.200000003 0.005503925029
l 1569 1570
v 0.006401435472 -0.200000003 0.005289841443
v 0.00694397511 -0.200000003 0.005401334725
l 1571 1572
v 0.005877247546 -0.200000003 0.005169434939
v 0.006401435472 -0.200000003 0.005289841443
l 1573 1574
v 0.00537007628 -0.200000003 0.005040105432
v 0.005877247546 -0.200000003 0.005169434939
l 1575 1576
v 0.004878581502 -0.200000003 0.004901786335
v 0.00537007628 -0.200000003 0.005040105432
l 1577 1578
v 0.004413406365 -0.200000003 0.004758206662
v 0.004878581502 -0.200000003 0.004901786335
l 1579 1580
v 0.003989921883 -0.200000003 0.004615936894
v 0.004413406365 -0.200000003 0.004758206662
l 1581 1582
v 0.003676338121 -0.200000003 0.004502319731
v 0.003989921883 -0.200000003 0.004615936894
l 1583 1584
v 0.003311660374 -0.200000003 0.004359350074
v 0.003676338121 -0.200000003 0.004502319731
l 1585 1586
v 0.002957944293 -0.200000003 0.004207406659
v 0.003311660374 -0.200000003 0.004359350074
l 1587 1588
v 0.002615628298 -0.200000003 0.004046320915
v 0.002957944293 -0.200000003 0.004207406659
l 1589 1590
v 0.002279329579 -0.200000003 0.003873495385
v 0.002615628298 -0.200000003 0.004046320915
l 1591 1592
v 0.002047128743 -0.200000003 0.003744100919
v 0.002279329579 -0.200000003 0.003873495385
l 1593 1594
v 0.001834571362 -0.200000003 0.003614248009
v 0.002047128743 -0.200000003 0.003744100919
l 1595 1596
v 0.001638641814 -0.200000003 0.003480721964
v 0.001834571362 -0.200000003 0.003614248009
l 1597 1598
v 0.001437713276 -0.200000003 0.00332863396
v 0.001638641814 -0.200000003 0.003480721964
l 1599 1600
v 0.001246589003 -0.200000003 0.003169836476
v 0.001437713276 -0.200000003 0.00332863396
l 1601 1602
v 0.001097824308 -0.200000003 0.003031705506
v 0.001246589003 -0.200000003 0.003169836476
l 1603 1604
v 0.0009830622002 -0.200000003 0.002909605158
v 0.001097824308 -0.200000003 0.003031705506
l 1605 1606
v 0.0008888893062 -0.200000003 0.002791695762
v 0.0009830622002 -0.200000003 0.002909605158
l 1607 1608
v 0.0007969387225 -0.200000003 0.002657190897
v 0.0008888893062 -0.200000003 0.002791695762
l 1609 1610
v 0.0006919899606 -0.200000003 0.002481377218
v 0.0007969387225 -0.200000003 0.002657190897
l 1611 1612
v 0.000603149063 -0.200000003 0.002309014555
v 0.0006919899606 -0.200000003 0.002481377218
l 1613 1614
v 0.0005216335994 -0.200000003 0.002125023864
v 0.000603149063 -0.200000003 0.002309014555
l 1615 1616
v 0.0004177659575 -0.200000003 0.001857079915
v 0.0005216335994 -0.200000003 0.002125023864
l 1617 1618
v 0.0003328776802 -0.200000003 0.001609786763
v 0.0004177659575 -0.200000003 0.001857079915
l 1619 1620
v 0.0002630004892 -0.200000003 0.001371767721
v 0.0003328776802 -0.200000003 0.001609786763
l 1621 1622
v 0.0002027197625 -0.200000003 0.001123687485
v 0.0002630004892 -0.200000003 0.001371767721
l 1623 1624
v 0.0001457289763 -0.200000003 0.0008426792338
v 0.0002027197625 -0.200000003 0.001123687485
l 1625 1626
v 7.876277959e-05 -0.200000003 0.0004591356847
v 0.0001457289763 -0.200000003 0.0008426792338
l 1627 1628
v 4.752502558e-11 -0.200000003 -2.515619268e-09
v 7.876277959e-05 -0.200000003 0.0004591356847
l 1629 1630
