# Wavefront OBJ file written 2026-01-13T13:45:24
o OFstream

# points : 814
# lines  : 815

# <points count="814">
v 0.400000006 0.6000000238 -1.56823099e-09
v 0.400000006 -0.200000003 -1.568231878e-09
v 0.0005423876573 0.6000000238 -0.004722107202
v 0.0004353494442 0.6000000238 -0.004282250069
v 0.0006675016484 0.6000000238 -0.005174528342
v 0.0003453023965 0.6000000238 -0.003853350645
v 0.0008119193953 0.6000000238 -0.005641541909
v 0.0009772132616 0.6000000238 -0.006125746761
v 0.0002691492264 0.6000000238 -0.003427079879
v 0.001165079186 0.6000000238 -0.006629616488
v 0.0002026822185 0.6000000238 -0.002983581973
v 0.001354631735 0.6000000238 -0.007101215422
v 0.0001454967423 0.6000000238 -0.002518262481
v 9.753450286e-05 0.6000000238 -0.002027546056
v 0.001565384911 0.6000000238 -0.00759294536
v 0.002697692486 0.6000000238 -0.009891561233
v 0.002372783609 0.6000000238 -0.00927558355
v 0.001799894497 0.6000000238 -0.008109270595
v 0.003037199145 0.6000000238 -0.01050566044
v 5.870025052e-05 0.6000000238 -0.001506474102
v 0.003391537583 0.6000000238 -0.01111805905
v 0.002062256215 0.6000000238 -0.008657549508
v 0.003760959487 0.6000000238 -0.01172893774
v 0.0007969387225 0.6000000238 0.002657190897
v 0.0008888893062 0.6000000238 0.002791695762
v 0.00414573634 0.6000000238 -0.01233847812
v 0.0009830622002 0.6000000238 0.002909605158
v 0.001097824308 0.6000000238 0.003031705506
v 0.000603149063 0.6000000238 0.002309014555
v 0.0006919899606 0.6000000238 0.002481377218
v 0.004546160344 0.6000000238 -0.01294686273
v 0.004962589592 0.6000000238 -0.01355434768
v 0.0005216335994 0.6000000238 0.002125023864
v 0.005397758912 0.6000000238 -0.01416441612
v 0.001638641814 0.6000000238 0.003480721964
v 0.001834571362 0.6000000238 0.003614248009
v 0.001246589003 0.6000000238 0.003169836476
v 2.884242895e-05 0.6000000238 -0.0009478979628
v 0.001437713276 0.6000000238 0.00332863396
v 0.0004177659575 0.6000000238 0.001857079915
v 0.005853902083 0.6000000238 -0.01477951184
v 0.0002027197625 0.6000000238 0.001123687485
v 0.0002630004892 0.6000000238 0.001371767721
v 0.006332010496 0.6000000238 -0.01540037245
v 0.002047128743 0.6000000238 0.003744100919
v 0.0003328776802 0.6000000238 0.001609786763
v 0.006833204068 0.6000000238 -0.01602784917
v 0.002279329579 0.6000000238 0.003873495385
v 0.002615628298 0.6000000238 0.004046320915
v 0.007358780131 0.6000000238 -0.01666293852
v 0.002957944293 0.6000000238 0.004207406659
v 0.0001457289763 0.6000000238 0.0008426792338
v 0.007910262793 0.6000000238 -0.01730680652
v 0.004413406365 0.6000000238 0.004758206662
v 0.004878581502 0.6000000238 0.004901786335
v 0.008489466272 0.6000000238 -0.01796086878
v 0.003989921883 0.6000000238 0.004615936894
v 0.003311660374 0.6000000238 0.004359350074
v 0.009098570794 0.6000000238 -0.01862682588
v 0.00537007628 0.6000000238 0.005040105432
v 7.876277959e-05 0.6000000238 0.0004591356847
v 0.009738425724 0.6000000238 -0.01930487715
v 0.005877247546 0.6000000238 0.005169434939
v 0.003676338121 0.6000000238 0.004502319731
v 0.01039841678 0.6000000238 -0.01998364553
v 0.01107766014 0.6000000238 -0.02066218294
v 0.006401435472 0.6000000238 0.005289841443
v 0.01177682448 0.6000000238 -0.02134086378
v 0.01547807828 0.6000000238 -0.02464974858
v 0.0146701606 0.6000000238 -0.0239638444
v 0.00694397511 0.6000000238 0.005401334725
v 0.01249665208 0.6000000238 -0.02202008665
v 0.0163086839 0.6000000238 -0.02533647045
v 0.007506470196 0.6000000238 0.005503925029
v 0.01323732641 0.6000000238 -0.02269972302
v 0.01716068015 0.6000000238 -0.02602272481
v 0.008090794086 0.6000000238 0.005597589072
v 0.01388658211 0.6000000238 -0.02328044921
v 0.01803484373 0.6000000238 -0.02670886181
v 0.008698485792 0.6000000238 0.005682213232
v 0.0093326848 0.6000000238 0.005757887382
v 0.01893205009 0.6000000238 -0.02739525959
v 0.009955799207 0.6000000238 0.005820893683
v 7.699129128e-06 0.6000000238 -0.0003407362965
v 4.752502558e-11 0.6000000238 -2.51561838e-09
v 0.01985325292 0.6000000238 -0.02808233723
v 0.01305910293 0.6000000238 0.006006615236
v 0.01399981603 0.6000000238 0.00603134837
v 0.01065573841 0.6000000238 0.005879724398
v 0.01219263487 0.6000000238 0.005972194951
v 0.01139722206 0.6000000238 0.005929989275
v 0.02079952881 0.6000000238 -0.02877056412
v 0.02177207172 0.6000000238 -0.02946046926
v 0.01496014278 0.6000000238 0.006043605041
v 0.02277220599 0.6000000238 -0.03015263192
v 0.01594238169 0.6000000238 0.006043194328
v 0.02379771695 0.6000000238 -0.03084523045
v 0.01694880985 0.6000000238 0.006029871292
v 0.02484434843 0.6000000238 -0.03153526038
v 0.217616871 0.6000000238 -0.01904323511
v 0.2211475521 0.6000000238 -0.01905761845
v 0.01798211783 0.6000000238 0.006003342103
v 0.02591281198 0.6000000238 -0.03222299367
v 0.222426489 0.6000000238 -0.056389153
v 0.2196462303 0.6000000238 -0.05690723285
v 0.2141155005 0.6000000238 -0.01901567914
v 0.2106426358 0.6000000238 -0.01897512004
v 0.02318783291 0.6000000238 0.005698229652
v 0.02443614602 0.6000000238 0.005588296801
v 0.0190455243 0.6000000238 0.005963246804
v 0.02700391971 0.6000000238 -0.03290870413
v 0.2169220001 0.6000000238 -0.05740076676
v 0.2142492086 0.6000000238 -0.05787090212
v 0.2116322815 0.6000000238 -0.05831702426
v 0.02571558394 0.6000000238 0.005462852772
v 0.02014293335 0.6000000238 0.00590914255
v 0.02811855264 0.6000000238 -0.03359269723
v 0.2246884853 0.6000000238 -0.01905851439
v 0.2090905011 0.6000000238 -0.0587361306
v 0.02704295143 0.6000000238 0.005320074502
v 0.0212791767 0.6000000238 0.005840461701
v 0.02925768495 0.6000000238 -0.03427531198
v 0.2282244861 0.6000000238 -0.0190458484
v 0.02842574194 0.6000000238 0.005158807151
v 0.02245861664 0.6000000238 0.005756391212
v 0.03042238764 0.6000000238 -0.03495691717
v 0.3295988739 0.6000000238 -0.01242163032
v 0.3330623507 0.6000000238 -0.01197839156
v 0.3261412084 0.6000000238 -0.01285053603
v 0.2317554653 0.6000000238 -0.01901964098
v 0.2252681255 0.6000000238 -0.05584517866
v 0.0316138342 0.6000000238 -0.03563791513
v 0.3315832615 0.6000000238 -0.02816480398
v 0.3280367255 0.6000000238 -0.02927468903
v 0.3226895034 0.6000000238 -0.01326515246
v 0.2281773984 0.6000000238 -0.05527373776
v 0.2071974725 0.6000000238 -0.01892165281
v 0.02987418696 0.6000000238 0.004977495875
v 0.03283004835 0.6000000238 -0.03631694242
v 0.3244089186 0.6000000238 -0.03039639443
v 0.3192436993 0.6000000238 -0.01366550848
v 0.2352813631 0.6000000238 -0.01897991076
v 0.2388021797 0.6000000238 -0.01892667823
v 0.2066167146 0.6000000238 -0.0591298677
v 0.03140229359 0.6000000238 0.004774009343
v 0.03406719491 0.6000000238 -0.03699173033
v 0.3206923604 0.6000000238 -0.03153198212
v 0.3158037961 0.6000000238 -0.01405163296
v 0.3123767078 0.6000000238 -0.01442281809
v 0.3089784086 0.6000000238 -0.01477753278
v 0.2404191643 0.6000000238 -0.05272222683
v 0.2372941822 0.6000000238 -0.05339492485
v 0.2311616242 0.6000000238 -0.05467298627
v 0.03302937374 0.6000000238 0.004544923548
v 0.03532584384 0.6000000238 -0.03766242787
v 0.3168788254 0.6000000238 -0.03268350288
v 0.3130137026 0.6000000238 -0.03383654356
v 0.3091453314 0.6000000238 -0.03497643024
v 0.2423178405 0.6000000238 -0.01885996386
v 0.2342090607 0.6000000238 -0.05404497683
v 0.2037792057 0.6000000238 -0.01885535941
v 0.03472538292 0.6000000238 0.004293258302
v 0.03659279272 0.6000000238 -0.03832205012
v 0.204203859 0.6000000238 -0.05949979275
v 0.03646938875 0.6000000238 0.004021545872
v 0.03789652884 0.6000000238 -0.0389852114
v 0.3365205228 0.6000000238 -0.01152210962
v 0.305608511 0.6000000238 -0.01511601359
v 0.2458281368 0.6000000238 -0.01877973787
v 0.2018460333 0.6000000238 -0.0598472096
v 0.03826834634 0.6000000238 0.003728410229
v 0.03922409192 0.6000000238 -0.03964487091
v 0.3350327015 0.6000000238 -0.02707207575
v 0.3022660017 0.6000000238 -0.01543846074
v 0.2435863763 0.6000000238 -0.05202615634
v 0.2003872246 0.6000000238 -0.01877632923
v 0.04013026133 0.6000000238 0.00341222831
v 0.04057637975 0.6000000238 -0.04030124098
v 0.3567101955 0.6000000238 -0.008572019637
v 0.3600450158 0.6000000238 -0.008036615327
v 0.3399486244 0.6000000238 -0.01105600502
v 0.3052737415 0.6000000238 -0.03610315546
v 0.2493105531 0.6000000238 -0.01868646406
v 0.1995382607 0.6000000238 -0.06017322093
v 0.1969973296 0.6000000238 -0.01868395321
v 0.04206531867 0.6000000238 0.003070936073
v 0.04195433483 0.6000000238 -0.04095454514
v 0.3633873463 0.6000000238 -0.007486381568
v 0.3624867201 0.6000000238 -0.01776486076
v 0.3603685796 0.6000000238 -0.01853478514
v 0.3383398354 0.6000000238 -0.02601157129
v 0.2989501059 0.6000000238 -0.01574506611
v 0.2467984259 0.6000000238 -0.05130591989
v 0.1972763091 0.6000000238 -0.06047875434
v 0.1903952062 0.6000000238 -0.01846481673
v 0.193660602 0.6000000238 -0.01857974753
v 0.04408679903 0.6000000238 0.002701835474
v 0.04335538298 0.6000000238 -0.0416033864
v 0.3580274284 0.6000000238 -0.01937269978
v 0.3533827066 0.6000000238 -0.009092634544
v 0.343347162 0.6000000238 -0.01058013178
v 0.3013989329 0.6000000238 -0.03721668944
v 0.2527579069 0.6000000238 -0.01858042926
v 0.1950562447 0.6000000238 -0.06076474488
v 0.1928637773 0.6000000238 -0.06103350222
v 0.1906728446 0.6000000238 -0.06128837168
v 0.04621250927 0.6000000238 0.002301240573
v 0.04477670416 0.6000000238 -0.04224635661
v 0.3555964828 0.6000000238 -0.02022938244
v 0.3500587046 0.6000000238 -0.009599094279
v 0.3467169404 0.6000000238 -0.01009449176
v 0.3415223956 0.6000000238 -0.02497826889
v 0.2956599891 0.6000000238 -0.01603600755
v 0.2500582635 0.6000000238 -0.05056061596
v 0.1884927899 0.6000000238 -0.0615282543
v 0.0485823974 0.6000000238 0.00184123416
v 0.04621886462 0.6000000238 -0.04288354144
v 0.3667370081 0.6000000238 -0.006921048276
v 0.3530580699 0.6000000238 -0.02111072838
v 0.3503927886 0.6000000238 -0.02202309854
v 0.2975257337 0.6000000238 -0.0383156538
v 0.2727869153 0.6000000238 -0.01768098958
v 0.2760614157 0.6000000238 -0.01748624071
v 0.2695100009 0.6000000238 -0.01786230505
v 0.1872006208 0.6000000238 -0.01833964325
v 0.05220864341 0.6000000238 -0.04537658766
v 0.05067662895 0.6000000238 -0.04476145655
v 0.05097031966 0.6000000238 0.001365326345
v 0.04768246412 0.6000000238 -0.04351505265
v 0.3678316176 0.6000000238 -0.01575802267
v 0.3661736846 0.6000000238 -0.01639251783
v 0.3475738168 0.6000000238 -0.02297514118
v 0.3445959687 0.6000000238 -0.02396747656
v 0.2923946381 0.6000000238 -0.01631147042
v 0.2793334126 0.6000000238 -0.01727807149
v 0.2745674253 0.6000000238 -0.0445362702
v 0.2708833218 0.6000000238 -0.04548547417
v 0.2561714649 0.6000000238 -0.01846174151
v 0.1863234937 0.6000000238 -0.06175325066
v 0.0537648499 0.6000000238 -0.04598645121
v 0.05355080217 0.6000000238 0.0008393303142
v 0.04916815087 0.6000000238 -0.0441409871
v 0.3644031584 0.6000000238 -0.0170574151
v 0.2936566174 0.6000000238 -0.03939935565
v 0.2783014774 0.6000000238 -0.04355977848
v 0.2662206292 0.6000000238 -0.01803067513
v 0.2595523596 0.6000000238 -0.01833049022
v 0.2533707619 0.6000000238 -0.04978887737
v 0.1840713173 0.6000000238 -0.01820426248
v 0.05854837596 0.6000000238 -0.04777151346
v 0.05693544075 0.6000000238 -0.04718429223
v 0.05534105748 0.6000000238 -0.04658927768
v 0.05639021471 0.6000000238 0.0002494404034
v 0.2891335189 0.6000000238 -0.01657316647
v 0.2826028168 0.6000000238 -0.01705649495
v 0.2672463059 0.6000000238 -0.04640831053
v 0.2567408383 0.6000000238 -0.04898928106
v 0.184164837 0.6000000238 -0.06196343899
v 0.06018027291 0.6000000238 -0.04835095629
v 0.2897916436 0.6000000238 -0.04046781734
v 0.2858695388 0.6000000238 -0.01682152227
v 0.2820885777 0.6000000238 -0.0425549522
v 0.2629017234 0.6000000238 -0.0181867741
v 0.1820166856 0.6000000238 -0.06215891987
v 0.06350263208 0.6000000238 -0.04948654026
v 0.06183154136 0.6000000238 -0.04892262444
v 0.06035310403 0.6000000238 -0.0005871524918
v 0.2859307528 0.6000000238 -0.04152105004
v 0.2601731122 0.6000000238 -0.04816042259
v 0.07038104534 0.6000000238 -0.05166082084
v 0.06863486022 0.6000000238 -0.05113048479
v 0.06690577418 0.6000000238 -0.05059106275
v 0.06519400328 0.6000000238 -0.05004272237
v 0.06609237939 0.6000000238 -0.001812578179
v 0.2636729181 0.6000000238 -0.04730070382
v 0.1810025275 0.6000000238 -0.01805868931
v 0.07214464247 0.6000000238 -0.05218206719
v 0.0716214776 0.6000000238 -0.002993116155
v 0.1798789203 0.6000000238 -0.06233977526
v 0.07572538406 0.6000000238 -0.05319718644
v 0.07392597198 0.6000000238 -0.05269419402
v 0.07534567267 0.6000000238 -0.003779910272
v 0.3699947894 0.6000000238 -0.006356956437
v 0.177751407 0.6000000238 -0.06250610203
v 0.1779900342 0.6000000238 -0.01790293865
v 0.07937984914 0.6000000238 -0.05417569354
v 0.07754321396 0.6000000238 -0.05369102582
v 0.07888840139 0.6000000238 -0.004517205525
v 0.3708903193 0.6000000238 -0.01455078647
v 0.3693987727 0.6000000238 -0.01514596213
v 0.1756308526 0.6000000238 -0.06265825778
v 0.1750301421 0.6000000238 -0.01773701608
v 0.08309911937 0.6000000238 -0.05511445925
v 0.08123365045 0.6000000238 -0.0546506457
v 0.08264771849 0.6000000238 -0.00528579345
v 0.3731312454 0.6000000238 -0.005799553357
v 0.1735144854 0.6000000238 -0.06279650331
v 0.08497622609 0.6000000238 -0.05556707829
v 0.08627427369 0.6000000238 -0.006012837403
v 0.3750323355 0.6000000238 -0.01282110158
v 0.3736982942 0.6000000238 -0.01339172851
v 0.1714024097 0.6000000238 -0.0629208684
v 0.172119543 0.6000000238 -0.01756093092
v 0.08875938505 0.6000000238 -0.05643716082
v 0.0868588835 0.6000000238 -0.05600704253
v 0.08978229016 0.6000000238 -0.006701776292
v 0.3761619031 0.6000000238 -0.005246678833
v 0.3787713349 0.6000000238 -0.004758486059
v 0.3723193109 0.6000000238 -0.0139676556
v 0.1692946851 0.6000000238 -0.06303136796
v 0.09259577096 0.6000000238 -0.05726327375
v 0.09067167342 0.6000000238 -0.0568559207
v 0.09318657964 0.6000000238 -0.00735606486
v 0.3799912632 0.6000000238 -0.01056650374
v 0.3788024485 0.6000000238 -0.01112793852
v 0.3775813282 0.6000000238 -0.01169029903
v 0.3763255477 0.6000000238 -0.01225435361
v 0.1692554355 0.6000000238 -0.0173747018
v 0.09647499025 0.6000000238 -0.05804262683
v 0.09453170747 0.6000000238 -0.05765915662
v 0.09649902582 0.6000000238 -0.007978476584
v 0.3812345564 0.6000000238 -0.004285970237
v 0.1671914011 0.6000000238 -0.06312805414
v 0.09842093289 0.6000000238 -0.05841280892
v 0.09970106184 0.6000000238 -0.00856627617
v 0.3823708594 0.6000000238 -0.009397874586
v 0.3811624944 0.6000000238 -0.009999057278
v 0.1664202213 0.6000000238 -0.01717726141
v 0.1042732745 0.6000000238 -0.05944344774
v 0.1023202166 0.6000000238 -0.05911324546
v 0.1003693864 0.6000000238 -0.05876969546
v 0.1028961837 0.6000000238 -0.009138920344
v 0.165092662 0.6000000238 -0.06321092695
v 0.1122896373 0.6000000238 -0.01073948666
v 0.1153611094 0.6000000238 -0.01123513561
v 0.1091891602 0.6000000238 -0.01022514049
v 0.1060584486 0.6000000238 -0.009691744111
v 0.1629985124 0.6000000238 -0.06328003854
v 0.163598001 0.6000000238 -0.01696739718
v 0.1607886404 0.6000000238 -0.01674507745
v 0.1081855223 0.6000000238 -0.06006370485
v 0.1062284186 0.6000000238 -0.0597602725
v 0.1609090716 0.6000000238 -0.06333541125
v 0.1588240415 0.6000000238 -0.06337709725
v 0.1184047163 0.6000000238 -0.01171241794
v 0.1214196756 0.6000000238 -0.01217130851
v 0.1567424536 0.6000000238 -0.06340514123
v 0.1579920799 0.6000000238 -0.01651035063
v 0.1552082151 0.6000000238 -0.0162632633
v 0.1243938208 0.6000000238 -0.01261005923
v 0.1140774414 0.6000000238 -0.06089481339
v 0.1121077761 0.6000000238 -0.06063069031
v 0.1546643823 0.6000000238 -0.06341957301
v 0.1525899023 0.6000000238 -0.06342041492
v 0.1180356741 0.6000000238 -0.06138437614
v 0.1160534397 0.6000000238 -0.06114605442
v 0.1101445258 0.6000000238 -0.06035373732
v 0.1505191475 0.6000000238 -0.06340768933
v 0.1524369568 0.6000000238 -0.01600386202
v 0.1496782601 0.6000000238 -0.01573219523
v 0.1273278147 0.6000000238 -0.01302897744
v 0.1302238107 0.6000000238 -0.01342858002
v 0.1484522074 0.6000000238 -0.06338142604
v 0.1463891864 0.6000000238 -0.06334163249
v 0.1240188703 0.6000000238 -0.06202139333
v 0.1220184863 0.6000000238 -0.06182208657
v 0.3835791945 0.6000000238 -0.003824397922
v 0.1443302035 0.6000000238 -0.06328836083
v 0.1469320208 0.6000000238 -0.01544830762
v 0.1330837756 0.6000000238 -0.01380933821
v 0.1359095275 0.6000000238 -0.01417168323
v 0.1200240552 0.6000000238 -0.06160973385
v 0.3846925497 0.6000000238 -0.00819988735
v 0.3835058212 0.6000000238 -0.008818907663
v 0.1422753781 0.6000000238 -0.06322161853
v 0.1441981941 0.6000000238 -0.01515224855
v 0.1300548166 0.6000000238 -0.06254062057
v 0.1280371249 0.6000000238 -0.06238069385
v 0.1402254552 0.6000000238 -0.06314145774
v 0.1387026906 0.6000000238 -0.01451601088
v 0.1414647996 0.6000000238 -0.01484268438
v 0.1260251254 0.6000000238 -0.06220760569
v 0.1381806731 0.6000000238 -0.0630479157
v 0.1361411214 0.6000000238 -0.06294102222
v 0.1341069043 0.6000000238 -0.062820822
v 0.3860599995 0.6000000238 -0.003322172677
v 0.1320781112 0.6000000238 -0.0626873374
v 0.3872781396 0.6000000238 -0.006809152663
v 0.3859437704 0.6000000238 -0.007533519994
v 0.3880414665 0.6000000238 -0.002909416799
v 0.389842689 0.6000000238 -0.002522998489
v 0.3915145099 0.6000000238 -0.002152832923
v 0.3887145221 0.6000000238 -0.006015811581
v 0.3930842876 0.6000000238 -0.001793580945
v 0.394487381 0.6000000238 -0.001461373176
v 0.3902750313 0.6000000238 -0.005141788628
v 0.3952694535 0.6000000238 -0.00235766056
v 0.3942481279 0.6000000238 -0.002916218713
v 0.392708689 0.6000000238 -0.003772657132
v 0.3957585394 0.6000000238 -0.001149158459
v 0.3961834908 0.6000000238 -0.001868224819
v 0.39693591 0.6000000238 -0.0008484020946
v 0.3970254958 0.6000000238 -0.001428963151
v 0.3980402052 0.6000000238 -0.0005545325112
v 0.3978151083 0.6000000238 -0.00102927594
v 0.3985647857 0.6000000238 -0.0006624969537
v 0.3990853131 0.6000000238 -0.0002644782362
v 0.3992819786 0.6000000238 -0.0003245156258
v 7.699129128e-06 -0.200000003 -0.0003407362965
v 4.752502558e-11 -0.200000003 -2.515619268e-09
v 2.884242895e-05 -0.200000003 -0.0009478979628
v 5.870025052e-05 -0.200000003 -0.001506474102
v 9.753450286e-05 -0.200000003 -0.002027546056
v 0.0001454967423 -0.200000003 -0.002518262481
v 0.0002026822185 -0.200000003 -0.002983581973
v 0.0002691492264 -0.200000003 -0.003427079879
v 0.0003453023965 -0.200000003 -0.003853350645
v 0.0004353494442 -0.200000003 -0.004282250069
v 0.0005423876573 -0.200000003 -0.004722107202
v 0.0006675016484 -0.200000003 -0.005174528342
v 0.0008119193953 -0.200000003 -0.005641541909
v 0.0009772132616 -0.200000003 -0.006125746761
v 0.001165079186 -0.200000003 -0.006629616488
v 0.001354631735 -0.200000003 -0.007101215422
v 0.001565384911 -0.200000003 -0.00759294536
v 0.001799894497 -0.200000003 -0.008109270595
v 0.002062256215 -0.200000003 -0.008657549508
v 0.002372783609 -0.200000003 -0.00927558355
v 0.002697692486 -0.200000003 -0.009891561233
v 0.003037199145 -0.200000003 -0.01050566044
v 0.003391537583 -0.200000003 -0.01111805905
v 0.003760959487 -0.200000003 -0.01172893774
v 0.00414573634 -0.200000003 -0.01233847812
v 0.004546160344 -0.200000003 -0.01294686273
v 0.004962589592 -0.200000003 -0.01355434768
v 0.005397758912 -0.200000003 -0.01416441612
v 0.005853902083 -0.200000003 -0.01477951184
v 0.006332010496 -0.200000003 -0.01540037245
v 0.006833204068 -0.200000003 -0.01602784917
v 0.007358780131 -0.200000003 -0.01666293852
v 0.007910262793 -0.200000003 -0.01730680652
v 0.008489466272 -0.200000003 -0.01796086878
v 0.009098570794 -0.200000003 -0.01862682588
v 0.009738425724 -0.200000003 -0.01930487715
v 0.01039841678 -0.200000003 -0.01998364553
v 0.01107766014 -0.200000003 -0.02066218294
v 0.01177682448 -0.200000003 -0.02134086378
v 0.01249665208 -0.200000003 -0.02202008665
v 0.01323732641 -0.200000003 -0.02269972302
v 0.01388658211 -0.200000003 -0.02328044921
v 0.0146701606 -0.200000003 -0.0239638444
v 0.01547807828 -0.200000003 -0.02464974858
v 0.0163086839 -0.200000003 -0.02533647045
v 0.01716068015 -0.200000003 -0.02602272481
v 0.01803484373 -0.200000003 -0.02670886181
v 0.01893205009 -0.200000003 -0.02739525959
v 0.01985325292 -0.200000003 -0.02808233723
v 0.02079952881 -0.200000003 -0.02877056412
v 0.02177207172 -0.200000003 -0.02946046926
v 0.02277220599 -0.200000003 -0.03015263192
v 0.02379771695 -0.200000003 -0.03084523045
v 0.02484434843 -0.200000003 -0.03153526038
v 0.02591281198 -0.200000003 -0.03222299367
v 0.02700391971 -0.200000003 -0.03290870413
v 0.02811855264 -0.200000003 -0.03359269723
v 0.02925768495 -0.200000003 -0.03427531198
v 0.03042238764 -0.200000003 -0.03495691717
v 0.0316138342 -0.200000003 -0.03563791513
v 0.03283004835 -0.200000003 -0.03631694242
v 0.03406719491 -0.200000003 -0.03699173033
v 0.03532584384 -0.200000003 -0.03766242787
v 0.03659279272 -0.200000003 -0.03832205012
v 0.03789652884 -0.200000003 -0.0389852114
v 0.03922409192 -0.200000003 -0.03964487091
v 0.04057637975 -0.200000003 -0.04030124098
v 0.04195433483 -0.200000003 -0.04095454514
v 0.04335538298 -0.200000003 -0.0416033864
v 0.04477670416 -0.200000003 -0.04224635661
v 0.04621886462 -0.200000003 -0.04288354144
v 0.04768246412 -0.200000003 -0.04351505265
v 0.04916815087 -0.200000003 -0.0441409871
v 0.05067662895 -0.200000003 -0.04476145655
v 0.05220864341 -0.200000003 -0.04537658766
v 0.0537648499 -0.200000003 -0.04598645121
v 0.05534105748 -0.200000003 -0.04658927768
v 0.05693544075 -0.200000003 -0.04718429223
v 0.05854837596 -0.200000003 -0.04777151346
v 0.06018027291 -0.200000003 -0.04835095629
v 0.06183154136 -0.200000003 -0.04892262444
v 0.06350263208 -0.200000003 -0.04948654026
v 0.06519400328 -0.200000003 -0.05004272237
v 0.06690577418 -0.200000003 -0.05059106275
v 0.06863486022 -0.200000003 -0.05113048479
v 0.07038104534 -0.200000003 -0.05166082084
v 0.07214464247 -0.200000003 -0.05218206719
v 0.07392597198 -0.200000003 -0.05269419402
v 0.07572538406 -0.200000003 -0.05319718644
v 0.07754321396 -0.200000003 -0.05369102582
v 0.07937984914 -0.200000003 -0.05417569354
v 0.08123365045 -0.200000003 -0.0546506457
v 0.08309911937 -0.200000003 -0.05511445925
v 0.08497622609 -0.200000003 -0.05556707829
v 0.0868588835 -0.200000003 -0.05600704253
v 0.08875938505 -0.200000003 -0.05643716082
v 0.09067167342 -0.200000003 -0.0568559207
v 0.09259577096 -0.200000003 -0.05726327375
v 0.09453170747 -0.200000003 -0.05765915662
v 0.09647499025 -0.200000003 -0.05804262683
v 0.09842093289 -0.200000003 -0.05841280892
v 0.1003693864 -0.200000003 -0.05876969546
v 0.1023202166 -0.200000003 -0.05911324546
v 0.1042732745 -0.200000003 -0.05944344774
v 0.1062284186 -0.200000003 -0.0597602725
v 0.1081855223 -0.200000003 -0.06006370485
v 0.1101445258 -0.200000003 -0.06035373732
v 0.1121077761 -0.200000003 -0.06063069031
v 0.1140774414 -0.200000003 -0.06089481339
v 0.1160534397 -0.200000003 -0.06114605442
v 0.1180356741 -0.200000003 -0.06138437614
v 0.1200240552 -0.200000003 -0.06160973385
v 0.1220184863 -0.200000003 -0.06182208657
v 0.1240188703 -0.200000003 -0.06202139333
v 0.1260251254 -0.200000003 -0.06220760569
v 0.1280371249 -0.200000003 -0.06238069385
v 0.1300548166 -0.200000003 -0.06254062057
v 0.1320781112 -0.200000003 -0.0626873374
v 0.1341069043 -0.200000003 -0.062820822
v 0.1361411214 -0.200000003 -0.06294102222
v 0.1381806731 -0.200000003 -0.0630479157
v 0.1402254552 -0.200000003 -0.06314145774
v 0.1422753781 -0.200000003 -0.06322161853
v 0.1443302035 -0.200000003 -0.06328836083
v 0.1463891864 -0.200000003 -0.06334163249
v 0.1484522074 -0.200000003 -0.06338142604
v 0.1505191475 -0.200000003 -0.06340768933
v 0.1525899023 -0.200000003 -0.06342041492
v 0.1546643823 -0.200000003 -0.06341957301
v 0.1567424536 -0.200000003 -0.06340514123
v 0.1588240415 -0.200000003 -0.06337709725
v 0.1609090716 -0.200000003 -0.06333541125
v 0.1629985124 -0.200000003 -0.06328003854
v 0.165092662 -0.200000003 -0.06321092695
v 0.1671914011 -0.200000003 -0.06312805414
v 0.1692946851 -0.200000003 -0.06303136796
v 0.1714024097 -0.200000003 -0.0629208684
v 0.1735144854 -0.200000003 -0.06279650331
v 0.1756308526 -0.200000003 -0.06265825778
v 0.177751407 -0.200000003 -0.06250610203
v 0.1798789203 -0.200000003 -0.06233977526
v 0.1820166856 -0.200000003 -0.06215891987
v 0.184164837 -0.200000003 -0.06196343899
v 0.1863234937 -0.200000003 -0.06175325066
v 0.1884927899 -0.200000003 -0.0615282543
v 0.1906728446 -0.200000003 -0.06128837168
v 0.1928637773 -0.200000003 -0.06103350222
v 0.1950562447 -0.200000003 -0.06076474488
v 0.1972763091 -0.200000003 -0.06047875434
v 0.1995382607 -0.200000003 -0.06017322093
v 0.2018460333 -0.200000003 -0.0598472096
v 0.204203859 -0.200000003 -0.05949979275
v 0.2066167146 -0.200000003 -0.0591298677
v 0.2090905011 -0.200000003 -0.0587361306
v 0.2116322815 -0.200000003 -0.05831702426
v 0.2142492086 -0.200000003 -0.05787090212
v 0.2169220001 -0.200000003 -0.05740076676
v 0.2196462303 -0.200000003 -0.05690723285
v 0.222426489 -0.200000003 -0.056389153
v 0.2252681255 -0.200000003 -0.05584517866
v 0.2281773984 -0.200000003 -0.05527373776
v 0.2311616242 -0.200000003 -0.05467298627
v 0.2342090607 -0.200000003 -0.05404497683
v 0.2372941822 -0.200000003 -0.05339492485
v 0.2404191643 -0.200000003 -0.05272222683
v 0.2435863763 -0.200000003 -0.05202615634
v 0.2467984259 -0.200000003 -0.05130591989
v 0.2500582635 -0.200000003 -0.05056061596
v 0.2533707619 -0.200000003 -0.04978887737
v 0.2567408383 -0.200000003 -0.04898928106
v 0.2601731122 -0.200000003 -0.04816042259
v 0.2636729181 -0.200000003 -0.04730070382
v 0.2672463059 -0.200000003 -0.04640831053
v 0.2708833218 -0.200000003 -0.04548547417
v 0.2745674253 -0.200000003 -0.0445362702
v 0.2783014774 -0.200000003 -0.04355977848
v 0.2820885777 -0.200000003 -0.0425549522
v 0.2859307528 -0.200000003 -0.04152105004
v 0.2897916436 -0.200000003 -0.04046781734
v 0.2936566174 -0.200000003 -0.03939935565
v 0.2975257337 -0.200000003 -0.0383156538
v 0.3013989329 -0.200000003 -0.03721668944
v 0.3052737415 -0.200000003 -0.03610315546
v 0.3091453314 -0.200000003 -0.03497643024
v 0.3130137026 -0.200000003 -0.03383654356
v 0.3168788254 -0.200000003 -0.03268350288
v 0.3206923604 -0.200000003 -0.03153198212
v 0.3244089186 -0.200000003 -0.03039639443
v 0.3280367255 -0.200000003 -0.02927468903
v 0.3315832615 -0.200000003 -0.02816480398
v 0.3350327015 -0.200000003 -0.02707207575
v 0.3383398354 -0.200000003 -0.02601157129
v 0.3415223956 -0.200000003 -0.02497826889
v 0.3445959687 -0.200000003 -0.02396747656
v 0.3475738168 -0.200000003 -0.02297514118
v 0.3503927886 -0.200000003 -0.02202309854
v 0.3530580699 -0.200000003 -0.02111072838
v 0.3555964828 -0.200000003 -0.02022938244
v 0.3580274284 -0.200000003 -0.01937269978
v 0.3603685796 -0.200000003 -0.01853478514
v 0.3624867201 -0.200000003 -0.01776486076
v 0.3644031584 -0.200000003 -0.0170574151
v 0.3661736846 -0.200000003 -0.01639251783
v 0.3678316176 -0.200000003 -0.01575802267
v 0.3693987727 -0.200000003 -0.01514596213
v 0.3708903193 -0.200000003 -0.01455078647
v 0.3723193109 -0.200000003 -0.0139676556
v 0.3736982942 -0.200000003 -0.01339172851
v 0.3750323355 -0.200000003 -0.01282110158
v 0.3763255477 -0.200000003 -0.01225435361
v 0.3775813282 -0.200000003 -0.01169029903
v 0.3788024485 -0.200000003 -0.01112793852
v 0.3799912632 -0.200000003 -0.01056650374
v 0.3811624944 -0.200000003 -0.009999057278
v 0.3823708594 -0.200000003 -0.009397874586
v 0.3835058212 -0.200000003 -0.008818907663
v 0.3846925497 -0.200000003 -0.00819988735
v 0.3859437704 -0.200000003 -0.007533519994
v 0.3872781396 -0.200000003 -0.006809152663
v 0.3887145221 -0.200000003 -0.006015811581
v 0.3902750313 -0.200000003 -0.005141788628
v 0.392708689 -0.200000003 -0.003772657132
v 0.3942481279 -0.200000003 -0.002916218713
v 0.3952694535 -0.200000003 -0.00235766056
v 0.3961834908 -0.200000003 -0.001868224819
v 0.3970254958 -0.200000003 -0.001428963151
v 0.3978151083 -0.200000003 -0.00102927594
v 0.3985647857 -0.200000003 -0.0006624969537
v 0.3992819786 -0.200000003 -0.0003245156258
v 0.3990853131 -0.200000003 -0.0002644782362
v 0.3980402052 -0.200000003 -0.0005545325112
v 0.39693591 -0.200000003 -0.0008484020946
v 0.3957585394 -0.200000003 -0.001149158459
v 0.394487381 -0.200000003 -0.001461373176
v 0.3930842876 -0.200000003 -0.001793580945
v 0.3915145099 -0.200000003 -0.002152832923
v 0.389842689 -0.200000003 -0.002522998489
v 0.3880414665 -0.200000003 -0.002909416799
v 0.3860599995 -0.200000003 -0.003322172677
v 0.3835791945 -0.200000003 -0.003824397922
v 0.3812345564 -0.200000003 -0.004285970237
v 0.3787713349 -0.200000003 -0.004758486059
v 0.3761619031 -0.200000003 -0.005246678833
v 0.3731312454 -0.200000003 -0.005799553357
v 0.3699947894 -0.200000003 -0.006356956437
v 0.3667370081 -0.200000003 -0.006921048276
v 0.3633873463 -0.200000003 -0.007486381568
v 0.3600450158 -0.200000003 -0.008036615327
v 0.3567101955 -0.200000003 -0.008572019637
v 0.3533827066 -0.200000003 -0.009092634544
v 0.3500587046 -0.200000003 -0.009599094279
v 0.3467169404 -0.200000003 -0.01009449176
v 0.343347162 -0.200000003 -0.01058013178
v 0.3399486244 -0.200000003 -0.01105600502
v 0.3365205228 -0.200000003 -0.01152210962
v 0.3330623507 -0.200000003 -0.01197839156
v 0.3295988739 -0.200000003 -0.01242163032
v 0.3261412084 -0.200000003 -0.01285053603
v 0.3226895034 -0.200000003 -0.01326515246
v 0.3192436993 -0.200000003 -0.01366550848
v 0.3158037961 -0.200000003 -0.01405163296
v 0.3123767078 -0.200000003 -0.01442281809
v 0.3089784086 -0.200000003 -0.01477753278
v 0.305608511 -0.200000003 -0.01511601359
v 0.3022660017 -0.200000003 -0.01543846074
v 0.2989501059 -0.200000003 -0.01574506611
v 0.2956599891 -0.200000003 -0.01603600755
v 0.2923946381 -0.200000003 -0.01631147042
v 0.2891335189 -0.200000003 -0.01657316647
v 0.2858695388 -0.200000003 -0.01682152227
v 0.2826028168 -0.200000003 -0.01705649495
v 0.2793334126 -0.200000003 -0.01727807149
v 0.2760614157 -0.200000003 -0.01748624071
v 0.2727869153 -0.200000003 -0.01768098958
v 0.2695100009 -0.200000003 -0.01786230505
v 0.2662206292 -0.200000003 -0.01803067513
v 0.2629017234 -0.200000003 -0.0181867741
v 0.2595523596 -0.200000003 -0.01833049022
v 0.2561714649 -0.200000003 -0.01846174151
v 0.2527579069 -0.200000003 -0.01858042926
v 0.2493105531 -0.200000003 -0.01868646406
v 0.2458281368 -0.200000003 -0.01877973787
v 0.2423178405 -0.200000003 -0.01885996386
v 0.2388021797 -0.200000003 -0.01892667823
v 0.2352813631 -0.200000003 -0.01897991076
v 0.2317554653 -0.200000003 -0.01901964098
v 0.2282244861 -0.200000003 -0.0190458484
v 0.2246884853 -0.200000003 -0.01905851439
v 0.2211475521 -0.200000003 -0.01905761845
v 0.217616871 -0.200000003 -0.01904323511
v 0.2141155005 -0.200000003 -0.01901567914
v 0.2106426358 -0.200000003 -0.01897512004
v 0.2071974725 -0.200000003 -0.01892165281
v 0.2037792057 -0.200000003 -0.01885535941
v 0.2003872246 -0.200000003 -0.01877632923
v 0.1969973296 -0.200000003 -0.01868395321
v 0.193660602 -0.200000003 -0.01857974753
v 0.1903952062 -0.200000003 -0.01846481673
v 0.1872006208 -0.200000003 -0.01833964325
v 0.1840713173 -0.200000003 -0.01820426248
v 0.1810025275 -0.200000003 -0.01805868931
v 0.1779900342 -0.200000003 -0.01790293865
v 0.1750301421 -0.200000003 -0.01773701608
v 0.172119543 -0.200000003 -0.01756093092
v 0.1692554355 -0.200000003 -0.0173747018
v 0.1664202213 -0.200000003 -0.01717726141
v 0.163598001 -0.200000003 -0.01696739718
v 0.1607886404 -0.200000003 -0.01674507745
v 0.1579920799 -0.200000003 -0.01651035063
v 0.1552082151 -0.200000003 -0.0162632633
v 0.1524369568 -0.200000003 -0.01600386202
v 0.1496782601 -0.200000003 -0.01573219523
v 0.1469320208 -0.200000003 -0.01544830762
v 0.1441981941 -0.200000003 -0.01515224855
v 0.1414647996 -0.200000003 -0.01484268438
v 0.1387026906 -0.200000003 -0.01451601088
v 0.1359095275 -0.200000003 -0.01417168323
v 0.1330837756 -0.200000003 -0.01380933821
v 0.1302238107 -0.200000003 -0.01342858002
v 0.1273278147 -0.200000003 -0.01302897744
v 0.1243938208 -0.200000003 -0.01261005923
v 0.1214196756 -0.200000003 -0.01217130851
v 0.1184047163 -0.200000003 -0.01171241794
v 0.1153611094 -0.200000003 -0.01123513561
v 0.1122896373 -0.200000003 -0.01073948666
v 0.1091891602 -0.200000003 -0.01022514049
v 0.1060584486 -0.200000003 -0.009691744111
v 0.1028961837 -0.200000003 -0.009138920344
v 0.09970106184 -0.200000003 -0.00856627617
v 0.09649902582 -0.200000003 -0.007978476584
v 0.09318657964 -0.200000003 -0.00735606486
v 0.08978229016 -0.200000003 -0.006701776292
v 0.08627427369 -0.200000003 -0.006012837403
v 0.08264771849 -0.200000003 -0.00528579345
v 0.07888840139 -0.200000003 -0.004517205525
v 0.07534567267 -0.200000003 -0.003779910272
v 0.0716214776 -0.200000003 -0.002993116155
v 0.06609237939 -0.200000003 -0.001812578179
v 0.06035310403 -0.200000003 -0.0005871524918
v 0.05639021471 -0.200000003 0.0002494404034
v 0.05355080217 -0.200000003 0.0008393303142
v 0.05097031966 -0.200000003 0.001365326345
v 0.0485823974 -0.200000003 0.00184123416
v 0.04621250927 -0.200000003 0.002301240573
v 0.04408679903 -0.200000003 0.002701835474
v 0.04206531867 -0.200000003 0.003070936073
v 0.04013026133 -0.200000003 0.00341222831
v 0.03826834634 -0.200000003 0.003728410229
v 0.03646938875 -0.200000003 0.004021545872
v 0.03472538292 -0.200000003 0.004293258302
v 0.03302937374 -0.200000003 0.004544923548
v 0.03140229359 -0.200000003 0.004774009343
v 0.02987418696 -0.200000003 0.004977495875
v 0.02842574194 -0.200000003 0.005158807151
v 0.02704295143 -0.200000003 0.005320074502
v 0.02571558394 -0.200000003 0.005462852772
v 0.02443614602 -0.200000003 0.005588296801
v 0.02318783291 -0.200000003 0.005698229652
v 0.02245861664 -0.200000003 0.005756391212
v 0.0212791767 -0.200000003 0.005840461701
v 0.02014293335 -0.200000003 0.00590914255
v 0.0190455243 -0.200000003 0.005963246804
v 0.01798211783 -0.200000003 0.006003342103
v 0.01694880985 -0.200000003 0.006029871292
v 0.01594238169 -0.200000003 0.006043194328
v 0.01496014278 -0.200000003 0.006043605041
v 0.01399981603 -0.200000003 0.00603134837
v 0.01305910293 -0.200000003 0.006006615236
v 0.01219263487 -0.200000003 0.005972194951
v 0.01139722206 -0.200000003 0.005929989275
v 0.01065573841 -0.200000003 0.005879724398
v 0.009955799207 -0.200000003 0.005820893683
v 0.0093326848 -0.200000003 0.005757887382
v 0.008698485792 -0.200000003 0.005682213232
v 0.008090794086 -0.200000003 0.005597589072
v 0.007506470196 -0.200000003 0.005503925029
v 0.00694397511 -0.200000003 0.005401334725
v 0.006401435472 -0.200000003 0.005289841443
v 0.005877247546 -0.200000003 0.005169434939
v 0.00537007628 -0.200000003 0.005040105432
v 0.004878581502 -0.200000003 0.004901786335
v 0.004413406365 -0.200000003 0.004758206662
v 0.003989921883 -0.200000003 0.004615936894
v 0.003676338121 -0.200000003 0.004502319731
v 0.003311660374 -0.200000003 0.004359350074
v 0.002957944293 -0.200000003 0.004207406659
v 0.002615628298 -0.200000003 0.004046320915
v 0.002279329579 -0.200000003 0.003873495385
v 0.002047128743 -0.200000003 0.003744100919
v 0.001834571362 -0.200000003 0.003614248009
v 0.001638641814 -0.200000003 0.003480721964
v 0.001437713276 -0.200000003 0.00332863396
v 0.001246589003 -0.200000003 0.003169836476
v 0.001097824308 -0.200000003 0.003031705506
v 0.0009830622002 -0.200000003 0.002909605158
v 0.0008888893062 -0.200000003 0.002791695762
v 0.0007969387225 -0.200000003 0.002657190897
v 0.0006919899606 -0.200000003 0.002481377218
v 0.000603149063 -0.200000003 0.002309014555
v 0.0005216335994 -0.200000003 0.002125023864
v 0.0004177659575 -0.200000003 0.001857079915
v 0.0003328776802 -0.200000003 0.001609786763
v 0.0002630004892 -0.200000003 0.001371767721
v 0.0002027197625 -0.200000003 0.001123687485
v 0.0001457289763 -0.200000003 0.0008426792338
v 7.876277959e-05 -0.200000003 0.0004591356847
# </points>

# <edges count="815">
l 3 4
l 5 3
l 4 6
l 7 5
l 8 7
l 6 9
l 10 8
l 9 11
l 12 10
l 11 13
l 13 14
l 15 12
l 16 17
l 18 15
l 19 16
l 14 20
l 21 19
l 22 18
l 23 21
l 17 22
l 24 25
l 26 23
l 25 27
l 27 28
l 29 30
l 31 26
l 30 24
l 32 31
l 33 29
l 34 32
l 35 36
l 28 37
l 20 38
l 39 35
l 40 33
l 41 34
l 37 39
l 42 43
l 44 41
l 36 45
l 43 46
l 47 44
l 48 49
l 46 40
l 50 47
l 49 51
l 52 42
l 53 50
l 54 55
l 45 48
l 56 53
l 57 54
l 51 58
l 59 56
l 55 60
l 61 52
l 62 59
l 60 63
l 58 64
l 65 62
l 64 57
l 66 65
l 63 67
l 68 66
l 69 70
l 67 71
l 72 68
l 73 69
l 71 74
l 75 72
l 76 73
l 74 77
l 78 75
l 79 76
l 77 80
l 70 78
l 80 81
l 82 79
l 81 83
l 84 85
l 86 82
l 87 88
l 83 89
l 38 84
l 90 87
l 89 91
l 92 86
l 91 90
l 93 92
l 88 94
l 95 93
l 94 96
l 97 95
l 96 98
l 99 97
l 100 101
l 98 102
l 103 99
l 104 105
l 106 100
l 107 106
l 108 109
l 102 110
l 111 103
l 112 113
l 113 114
l 109 115
l 110 116
l 117 111
l 101 118
l 114 119
l 115 120
l 116 121
l 122 117
l 118 123
l 105 112
l 120 124
l 121 125
l 126 122
l 127 128
l 129 127
l 123 130
l 131 104
l 125 108
l 132 126
l 133 134
l 135 129
l 136 131
l 137 107
l 124 138
l 139 132
l 134 140
l 141 135
l 142 143
l 130 142
l 119 144
l 138 145
l 146 139
l 140 147
l 148 141
l 149 148
l 150 149
l 151 152
l 153 136
l 145 154
l 155 146
l 147 156
l 157 158
l 143 159
l 160 153
l 161 137
l 154 162
l 163 155
l 156 157
l 152 160
l 144 164
l 162 165
l 166 163
l 128 167
l 168 150
l 159 169
l 164 170
l 165 171
l 172 166
l 173 133
l 174 168
l 175 151
l 176 161
l 171 177
l 178 172
l 179 180
l 167 181
l 158 182
l 169 183
l 170 184
l 185 176
l 177 186
l 187 178
l 180 188
l 189 190
l 191 173
l 192 174
l 193 175
l 184 194
l 195 196
l 186 197
l 198 187
l 190 199
l 200 179
l 181 201
l 182 202
l 183 203
l 194 204
l 196 185
l 205 206
l 197 207
l 208 198
l 199 209
l 210 200
l 211 210
l 212 191
l 213 192
l 214 193
l 206 215
l 207 216
l 217 208
l 188 218
l 209 219
l 219 220
l 201 211
l 202 221
l 222 223
l 224 222
l 204 205
l 225 195
l 226 227
l 216 228
l 229 217
l 230 231
l 220 232
l 233 212
l 234 213
l 223 235
l 236 237
l 203 238
l 215 239
l 240 226
l 228 241
l 242 229
l 243 189
l 221 244
l 245 236
l 246 224
l 238 247
l 248 214
l 249 225
l 250 251
l 252 240
l 241 253
l 227 242
l 232 233
l 254 234
l 235 255
l 237 256
l 257 248
l 239 258
l 259 250
l 251 252
l 85 61
l 244 260
l 261 254
l 262 245
l 247 263
l 258 264
l 265 266
l 266 259
l 253 267
l 260 268
l 268 262
l 263 246
l 269 257
l 270 271
l 272 273
l 273 265
l 267 274
l 255 261
l 275 269
l 276 249
l 277 270
l 271 272
l 274 278
l 256 275
l 264 279
l 280 281
l 281 277
l 278 282
l 218 283
l 279 284
l 285 276
l 286 287
l 287 280
l 282 288
l 289 290
l 284 291
l 292 285
l 293 294
l 294 286
l 288 295
l 283 296
l 231 243
l 291 297
l 298 293
l 295 299
l 300 301
l 297 302
l 303 292
l 304 305
l 305 298
l 299 306
l 307 308
l 296 307
l 301 309
l 302 310
l 311 312
l 312 304
l 306 313
l 314 315
l 316 317
l 290 230
l 318 303
l 319 320
l 320 311
l 313 321
l 308 322
l 317 300
l 310 323
l 324 319
l 321 325
l 326 327
l 309 289
l 328 318
l 329 330
l 331 324
l 325 332
l 315 316
l 323 333
l 334 335
l 336 334
l 332 337
l 333 338
l 339 328
l 340 339
l 341 342
l 337 336
l 338 343
l 343 344
l 345 346
l 335 345
l 330 331
l 344 347
l 348 340
l 349 348
l 346 350
l 351 352
l 342 329
l 347 353
l 353 354
l 355 356
l 357 341
l 354 358
l 359 349
l 360 359
l 361 362
l 350 361
l 352 357
l 358 363
l 363 364
l 365 366
l 356 351
l 322 367
l 364 368
l 369 360
l 370 371
l 362 370
l 372 355
l 373 374
l 368 375
l 376 369
l 377 378
l 366 372
l 327 314
l 375 379
l 380 381
l 371 380
l 382 365
l 379 383
l 381 376
l 384 385
l 378 382
l 367 386
l 383 384
l 387 377
l 388 389
l 385 387
l 386 390
l 374 326
l 390 391
l 389 373
l 391 392
l 393 388
l 394 395
l 396 393
l 397 398
l 399 396
l 392 394
l 395 400
l 401 397
l 400 402
l 403 401
l 402 404
l 405 403
l 406 405
l 404 407
l 408 406
l 1 408
l 407 1
l 398 399
l 409 410
l 411 409
l 412 411
l 413 412
l 414 413
l 415 414
l 416 415
l 417 416
l 418 417
l 419 418
l 420 419
l 421 420
l 422 421
l 423 422
l 424 423
l 425 424
l 426 425
l 427 426
l 428 427
l 429 428
l 430 429
l 431 430
l 432 431
l 433 432
l 434 433
l 435 434
l 436 435
l 437 436
l 438 437
l 439 438
l 440 439
l 441 440
l 442 441
l 443 442
l 444 443
l 445 444
l 446 445
l 447 446
l 448 447
l 449 448
l 450 449
l 451 450
l 452 451
l 453 452
l 454 453
l 455 454
l 456 455
l 457 456
l 458 457
l 459 458
l 460 459
l 461 460
l 462 461
l 463 462
l 464 463
l 465 464
l 466 465
l 467 466
l 468 467
l 469 468
l 470 469
l 471 470
l 472 471
l 473 472
l 474 473
l 475 474
l 476 475
l 477 476
l 478 477
l 479 478
l 480 479
l 481 480
l 482 481
l 483 482
l 484 483
l 485 484
l 486 485
l 487 486
l 488 487
l 489 488
l 490 489
l 491 490
l 492 491
l 493 492
l 494 493
l 495 494
l 496 495
l 497 496
l 498 497
l 499 498
l 500 499
l 501 500
l 502 501
l 503 502
l 504 503
l 505 504
l 506 505
l 507 506
l 508 507
l 509 508
l 510 509
l 511 510
l 512 511
l 513 512
l 514 513
l 515 514
l 516 515
l 517 516
l 518 517
l 519 518
l 520 519
l 521 520
l 522 521
l 523 522
l 524 523
l 525 524
l 526 525
l 527 526
l 528 527
l 529 528
l 530 529
l 531 530
l 532 531
l 533 532
l 534 533
l 535 534
l 536 535
l 537 536
l 538 537
l 539 538
l 540 539
l 541 540
l 542 541
l 543 542
l 544 543
l 545 544
l 546 545
l 547 546
l 548 547
l 549 548
l 550 549
l 551 550
l 552 551
l 553 552
l 554 553
l 555 554
l 556 555
l 557 556
l 558 557
l 559 558
l 560 559
l 561 560
l 562 561
l 563 562
l 564 563
l 565 564
l 566 565
l 567 566
l 568 567
l 569 568
l 570 569
l 571 570
l 572 571
l 573 572
l 574 573
l 575 574
l 576 575
l 577 576
l 578 577
l 579 578
l 580 579
l 581 580
l 582 581
l 583 582
l 584 583
l 585 584
l 586 585
l 587 586
l 588 587
l 589 588
l 590 589
l 591 590
l 592 591
l 593 592
l 594 593
l 595 594
l 596 595
l 597 596
l 598 597
l 599 598
l 600 599
l 601 600
l 602 601
l 603 602
l 604 603
l 605 604
l 606 605
l 607 606
l 608 607
l 609 608
l 610 609
l 611 610
l 612 611
l 613 612
l 614 613
l 615 614
l 616 615
l 617 616
l 618 617
l 619 618
l 620 619
l 621 620
l 622 621
l 623 622
l 624 623
l 625 624
l 626 625
l 627 626
l 628 627
l 629 628
l 630 629
l 631 630
l 632 631
l 633 632
l 634 633
l 635 634
l 636 635
l 637 636
l 2 637
l 1 2
l 638 2
l 639 638
l 640 639
l 641 640
l 642 641
l 643 642
l 644 643
l 645 644
l 646 645
l 647 646
l 648 647
l 649 648
l 650 649
l 651 650
l 652 651
l 653 652
l 654 653
l 655 654
l 656 655
l 657 656
l 658 657
l 659 658
l 660 659
l 661 660
l 662 661
l 663 662
l 664 663
l 665 664
l 666 665
l 667 666
l 668 667
l 669 668
l 670 669
l 671 670
l 672 671
l 673 672
l 674 673
l 675 674
l 676 675
l 677 676
l 678 677
l 679 678
l 680 679
l 681 680
l 682 681
l 683 682
l 684 683
l 685 684
l 686 685
l 687 686
l 688 687
l 689 688
l 690 689
l 691 690
l 692 691
l 693 692
l 694 693
l 695 694
l 696 695
l 697 696
l 698 697
l 699 698
l 700 699
l 701 700
l 702 701
l 703 702
l 704 703
l 705 704
l 706 705
l 707 706
l 708 707
l 709 708
l 710 709
l 711 710
l 712 711
l 713 712
l 714 713
l 715 714
l 716 715
l 717 716
l 718 717
l 719 718
l 720 719
l 721 720
l 722 721
l 723 722
l 724 723
l 725 724
l 726 725
l 727 726
l 728 727
l 729 728
l 730 729
l 731 730
l 732 731
l 733 732
l 734 733
l 735 734
l 736 735
l 737 736
l 738 737
l 739 738
l 740 739
l 741 740
l 742 741
l 743 742
l 744 743
l 745 744
l 746 745
l 747 746
l 748 747
l 749 748
l 750 749
l 751 750
l 752 751
l 753 752
l 754 753
l 755 754
l 756 755
l 757 756
l 758 757
l 759 758
l 760 759
l 761 760
l 762 761
l 763 762
l 764 763
l 765 764
l 766 765
l 767 766
l 768 767
l 769 768
l 770 769
l 771 770
l 772 771
l 773 772
l 774 773
l 775 774
l 776 775
l 777 776
l 778 777
l 779 778
l 780 779
l 781 780
l 782 781
l 783 782
l 784 783
l 785 784
l 786 785
l 787 786
l 788 787
l 789 788
l 790 789
l 791 790
l 792 791
l 793 792
l 794 793
l 795 794
l 796 795
l 797 796
l 798 797
l 799 798
l 800 799
l 801 800
l 802 801
l 803 802
l 804 803
l 805 804
l 806 805
l 807 806
l 808 807
l 809 808
l 810 809
l 811 810
l 812 811
l 813 812
l 814 813
l 410 814
# </edges>
